<svg width="16" height="18" viewBox="0 0 16 18" fill="none" xmlns="http://www.w3.org/2000/svg">
<g clip-path="url(#clip0_303_1629)">
<path d="M8.36948 2C4.46783 2 1.30127 5.136 1.30127 9C1.30127 12.864 4.46783 16 8.36948 16C12.2711 16 15.4377 12.864 15.4377 9C15.4377 5.136 12.2711 2 8.36948 2ZM11.1968 9.7H9.0763V11.8C9.0763 12.185 8.75823 12.5 8.36948 12.5C7.98073 12.5 7.66266 12.185 7.66266 11.8V9.7H5.5422C5.15344 9.7 4.83537 9.385 4.83537 9C4.83537 8.615 5.15344 8.3 5.5422 8.3H7.66266V6.2C7.66266 5.815 7.98073 5.5 8.36948 5.5C8.75823 5.5 9.0763 5.815 9.0763 6.2V8.3H11.1968C11.5855 8.3 11.9036 8.615 11.9036 9C11.9036 9.385 11.5855 9.7 11.1968 9.7Z" fill="white"/>
</g>
<defs>
<clipPath id="clip0_303_1629">
<rect width="15.6155" height="18" fill="white"/>
</clipPath>
</defs>
</svg>
