<svg width="13" height="13" viewBox="0 0 13 13" fill="none" xmlns="http://www.w3.org/2000/svg">
<path d="M8.88695 0.68922C9.34276 0.24396 9.95576 -0.00366927 10.593 4.1102e-05C11.2302 0.00375147 11.8403 0.258503 12.2909 0.70904C12.7415 1.15958 12.9962 1.76957 13 2.40672C13.0037 3.04386 12.756 3.65678 12.3107 4.11254L11.7662 4.65691L8.3425 1.2336L8.88695 0.68922ZM7.76713 1.80971L1.25738 8.31865C0.991001 8.58531 0.806103 8.92232 0.724327 9.29023L0.00979273 12.5044C-0.00515224 12.5713 -0.00296166 12.6409 0.0161614 12.7067C0.0352844 12.7725 0.0707202 12.8324 0.119181 12.8808C0.167642 12.9293 0.227558 12.9647 0.29337 12.9838C0.359183 13.003 0.428759 13.0052 0.495644 12.9902L3.6907 12.2798C4.07111 12.1952 4.41949 12.0038 4.69496 11.7281L11.1909 5.23303L7.76713 1.80971Z" fill="black"/>
</svg>
