<svg width="32" height="32" viewBox="0 0 32 32" fill="none" xmlns="http://www.w3.org/2000/svg">
<rect width="32" height="32" rx="16" fill="#00566D"/>
<path d="M19.4538 8.91418C19.6908 8.66958 19.9741 8.47457 20.2873 8.34052C20.6004 8.20647 20.937 8.13606 21.2776 8.13338C21.6182 8.1307 21.956 8.19581 22.2712 8.32492C22.5864 8.45403 22.8727 8.64455 23.1136 8.8854C23.3544 9.12625 23.5449 9.41261 23.6741 9.7278C23.8032 10.043 23.8683 10.3807 23.8656 10.7213C23.8629 11.0619 23.7925 11.3986 23.6585 11.7117C23.5244 12.0248 23.3294 12.3082 23.0848 12.5452L22.0791 13.5509L18.4481 9.9199L19.4538 8.91418ZM17.7558 10.6121L9.79695 18.571C9.5096 18.8583 9.30062 19.2149 9.19091 19.6068L8.18062 23.2149C8.15728 23.2986 8.1566 23.3869 8.17864 23.4709C8.20068 23.5549 8.24465 23.6315 8.30606 23.6929C8.36746 23.7543 8.44408 23.7983 8.52808 23.8203C8.61207 23.8424 8.70041 23.8417 8.78405 23.8183L12.3916 22.8081C12.7834 22.6984 13.1403 22.4897 13.428 22.202L21.3875 14.2438L17.7565 10.6128L17.7558 10.6121Z" fill="white"/>
</svg>
