<svg width="52" height="52" viewBox="0 0 52 52" fill="none" xmlns="http://www.w3.org/2000/svg">
<path d="M44.3203 7.67965H44.317L49.764 8.7684C50.0565 8.8269 50.297 9.0414 50.3815 9.33065C50.4242 9.47116 50.428 9.6206 50.3925 9.7631C50.357 9.90559 50.2836 10.0358 50.18 10.1399L45.7178 14.6054C45.1839 15.1383 44.4603 15.4375 43.706 15.4374H40.0075L30.7125 24.7356C30.8898 25.4052 30.9224 26.1049 30.8082 26.7881C30.6939 27.4712 30.4353 28.1222 30.0497 28.6976C29.6641 29.273 29.1604 29.7596 28.572 30.1251C27.9835 30.4905 27.324 30.7263 26.6373 30.8169C25.9506 30.9074 25.2525 30.8506 24.5894 30.6502C23.9264 30.4498 23.3137 30.1104 22.7921 29.6546C22.2706 29.1988 21.8521 28.6371 21.5646 28.0069C21.2772 27.3768 21.1273 26.6926 21.125 25.9999C21.1255 25.252 21.2979 24.5143 21.629 23.8437C21.96 23.1731 22.4408 22.5876 23.0342 22.1324C23.6276 21.6773 24.3177 21.3646 25.0511 21.2187C25.7846 21.0727 26.5418 21.0973 27.2642 21.2906L36.5625 11.9891V8.2939C36.5625 7.5399 36.8615 6.81515 37.3945 6.28215L41.86 1.81665C41.9641 1.71307 42.0943 1.63963 42.2368 1.60415C42.3793 1.56867 42.5287 1.57247 42.6692 1.61515C42.9585 1.69965 43.173 1.94015 43.2315 2.23265L44.3203 7.67965Z" fill="#0A3C50"/>
<path d="M6.48951 26.0025C6.49284 28.7909 7.09415 31.5461 8.25285 34.0824C9.41155 36.6186 11.1007 38.8768 13.2064 40.7047C15.312 42.5326 17.7852 43.8877 20.4591 44.6785C23.133 45.4693 25.9454 45.6775 28.7065 45.2889C31.4677 44.9004 34.1135 43.9243 36.4653 42.4263C38.8171 40.9283 40.8203 38.9434 42.3398 36.6054C43.8593 34.2674 44.8597 31.6307 45.2735 28.8732C45.6874 26.1157 45.505 23.3015 44.7388 20.6205C44.6312 20.3073 44.5885 19.9755 44.6132 19.6452C44.638 19.3149 44.7297 18.9932 44.8828 18.6995C45.0359 18.4058 45.2471 18.1464 45.5037 17.9369C45.7602 17.7275 46.0567 17.5725 46.3751 17.4813C46.6935 17.3901 47.0271 17.3646 47.3556 17.4065C47.6842 17.4484 48.0007 17.5566 48.2861 17.7248C48.5714 17.8929 48.8196 18.1173 49.0154 18.3844C49.2113 18.6514 49.3507 18.9556 49.4253 19.2783C50.909 24.4702 50.6271 30.0079 48.624 35.0224C46.6208 40.0369 43.0097 44.2445 38.3571 46.9852C33.7045 49.7259 28.2737 50.8445 22.9168 50.1656C17.5598 49.4867 12.5798 47.0487 8.75801 43.234C4.94037 39.4132 2.49973 34.4327 1.81927 29.0745C1.13881 23.7163 2.25707 18.2838 4.99848 13.63C7.73989 8.9762 11.9492 5.36458 16.9655 3.36218C21.9819 1.35978 27.5212 1.08001 32.7138 2.56677C33.332 2.74751 33.8536 3.16564 34.1646 3.72979C34.4755 4.29394 34.5505 4.95823 34.3731 5.5775C34.1958 6.19676 33.7805 6.72064 33.218 7.03464C32.6556 7.34865 31.9917 7.42725 31.3715 7.25327C28.4679 6.42019 25.4105 6.27296 22.4402 6.82319C19.47 7.37342 16.6682 8.60607 14.2557 10.424C11.8432 12.2419 9.88589 14.5953 8.53818 17.2988C7.19046 20.0022 6.48914 22.9818 6.48951 26.0025Z" fill="#0A3C50"/>
<path d="M16.2501 25.9999C16.2503 27.7763 16.7355 29.519 17.6533 31.0399C18.5712 32.5608 19.8869 33.8023 21.4584 34.6304C23.03 35.4585 24.7979 35.8418 26.5713 35.739C28.3448 35.6361 30.0565 35.0511 31.5218 34.0469C32.9869 33.0402 34.1489 31.6521 34.8821 30.0327C35.6153 28.4133 35.8919 26.6243 35.6818 24.8591C35.625 24.4308 35.6834 23.995 35.851 23.5968C36.0186 23.1985 36.2893 22.8521 36.6352 22.5932C36.9812 22.3343 37.3899 22.1723 37.8193 22.1239C38.2486 22.0754 38.6832 22.1423 39.0781 22.3176C39.4729 22.4907 39.8148 22.7653 40.0689 23.1136C40.323 23.4619 40.4801 23.8713 40.5243 24.3001C40.8775 27.3165 40.2829 30.3679 38.823 33.031C37.3632 35.694 35.1105 37.8365 32.3777 39.1612C29.6449 40.4858 26.5675 40.9269 23.5726 40.4231C20.5778 39.9194 17.814 38.4958 15.665 36.35C13.5159 34.2042 12.0881 31.4426 11.5798 28.4486C11.0716 25.4545 11.5079 22.3764 12.8284 19.6416C14.1489 16.9068 16.2881 14.6509 18.9489 13.187C21.6097 11.7231 24.6602 11.1238 27.6771 11.4724C28.0001 11.5024 28.3139 11.5965 28.6001 11.7493C28.8863 11.9022 29.1391 12.1106 29.3436 12.3624C29.5482 12.6141 29.7005 12.9042 29.7915 13.2156C29.8825 13.527 29.9105 13.8534 29.8737 14.1758C29.8369 14.4981 29.7362 14.8099 29.5773 15.0927C29.4185 15.3756 29.2048 15.624 28.9488 15.8232C28.6927 16.0224 28.3995 16.1685 28.0863 16.253C27.773 16.3374 27.4461 16.3585 27.1246 16.3149C25.7585 16.1563 24.3743 16.2885 23.0629 16.7028C21.7515 17.1171 20.5425 17.8041 19.5155 18.7188C18.4885 19.6335 17.6666 20.7551 17.1038 22.01C16.541 23.2649 16.2501 24.6246 16.2501 25.9999Z" fill="#0A3C50"/>
</svg>
