<svg width="131" height="182" viewBox="0 0 131 182" fill="none" xmlns="http://www.w3.org/2000/svg">
<g filter="url(#filter0_ddddd_303_2267)">
<path d="M71.274 46.726H71.272L74.624 47.396C74.804 47.432 74.952 47.564 75.004 47.742C75.0303 47.8285 75.0326 47.9204 75.0108 48.0081C74.9889 48.0958 74.9437 48.1759 74.88 48.24L72.134 50.988C71.8055 51.3159 71.3602 51.5001 70.896 51.5H68.62L62.9 57.222C63.0091 57.634 63.0292 58.0646 62.9589 58.485C62.8885 58.9054 62.7294 59.306 62.4921 59.6601C62.2549 60.0142 61.9448 60.3137 61.5827 60.5386C61.2206 60.7634 60.8148 60.9086 60.3922 60.9643C59.9696 61.02 59.54 60.9851 59.132 60.8617C58.7239 60.7384 58.3469 60.5295 58.0259 60.249C57.705 59.9686 57.4474 59.6229 57.2705 59.2351C57.0936 58.8473 57.0014 58.4262 57 58C57.0003 57.5398 57.1064 57.0858 57.3101 56.6731C57.5138 56.2604 57.8097 55.9001 58.1749 55.62C58.54 55.3399 58.9647 55.1475 59.4161 55.0577C59.8674 54.9679 60.3334 54.983 60.778 55.102L66.5 49.378V47.104C66.5 46.64 66.684 46.194 67.012 45.866L69.76 43.118C69.8241 43.0543 69.9042 43.0091 69.9919 42.9872C70.0796 42.9654 70.1715 42.9677 70.258 42.994C70.436 43.046 70.568 43.194 70.604 43.374L71.274 46.726Z" fill="white"/>
<path d="M47.9999 58.0001C48.0019 59.716 48.372 61.4115 49.085 62.9723C49.7981 64.533 50.8376 65.9227 52.1333 67.0476C53.4291 68.1725 54.9511 69.0063 56.5966 69.493C58.242 69.9796 59.9727 70.1077 61.6719 69.8687C63.3711 69.6296 64.9992 69.0288 66.4465 68.107C67.8938 67.1852 69.1266 65.9637 70.0616 64.5249C70.9967 63.0862 71.6123 61.4636 71.867 59.7667C72.1217 58.0697 72.0094 56.3379 71.5379 54.6881C71.4717 54.4953 71.4454 54.2911 71.4606 54.0879C71.4759 53.8846 71.5323 53.6866 71.6265 53.5059C71.7207 53.3252 71.8507 53.1655 72.0086 53.0366C72.1665 52.9078 72.349 52.8124 72.5449 52.7562C72.7408 52.7001 72.9461 52.6845 73.1483 52.7102C73.3505 52.736 73.5453 52.8026 73.7209 52.9061C73.8965 53.0095 74.0492 53.1476 74.1697 53.312C74.2902 53.4763 74.376 53.6635 74.4219 53.8621C75.3349 57.0571 75.1615 60.4649 73.9288 63.5508C72.6961 66.6366 70.4738 69.2259 67.6107 70.9125C64.7476 72.5991 61.4056 73.2875 58.109 72.8697C54.8124 72.4519 51.7478 70.9516 49.3959 68.6041C47.0466 66.2528 45.5446 63.1879 45.1259 59.8905C44.7072 56.5932 45.3953 53.2501 47.0823 50.3862C48.7694 47.5223 51.3597 45.2998 54.4467 44.0676C57.5337 42.8353 60.9425 42.6632 64.1379 43.5781C64.5184 43.6893 64.8394 43.9466 65.0307 44.2938C65.222 44.641 65.2682 45.0498 65.159 45.4308C65.0499 45.8119 64.7943 46.1343 64.4482 46.3275C64.1021 46.5208 63.6936 46.5692 63.3119 46.4621C61.5251 45.9494 59.6436 45.8588 57.8157 46.1974C55.9879 46.536 54.2637 47.2946 52.7791 48.4133C51.2944 49.532 50.09 50.9803 49.2606 52.6439C48.4312 54.3076 47.9997 56.1412 47.9999 58.0001Z" fill="white"/>
<path d="M54 58C54.0001 59.0932 54.2987 60.1656 54.8635 61.1015C55.4283 62.0375 56.238 62.8014 57.2051 63.311C58.1723 63.8206 59.2602 64.0565 60.3515 63.9932C61.4429 63.93 62.4962 63.5699 63.398 62.952C64.2996 62.3324 65.0146 61.4782 65.4658 60.4817C65.917 59.4852 66.0872 58.3842 65.958 57.298C65.923 57.0344 65.959 56.7662 66.0621 56.5211C66.1652 56.276 66.3318 56.0629 66.5447 55.9035C66.7576 55.7442 67.0091 55.6445 67.2733 55.6147C67.5375 55.5849 67.8049 55.6261 68.048 55.734C68.291 55.8405 68.5014 56.0095 68.6577 56.2238C68.8141 56.4381 68.9108 56.6901 68.938 56.954C69.1553 58.8102 68.7894 60.688 67.891 62.3268C66.9926 63.9656 65.6064 65.2841 63.9247 66.0992C62.2429 66.9144 60.3492 67.1858 58.5062 66.8758C56.6632 66.5658 54.9624 65.6898 53.6399 64.3693C52.3174 63.0488 51.4388 61.3494 51.126 59.5068C50.8132 57.6643 51.0817 55.7701 51.8944 54.0872C52.707 52.4042 54.0233 51.016 55.6608 50.1151C57.2982 49.2142 59.1755 48.8455 61.032 49.06C61.2308 49.0784 61.4239 49.1364 61.6 49.2304C61.7761 49.3244 61.9317 49.4527 62.0576 49.6076C62.1834 49.7626 62.2771 49.9411 62.3332 50.1327C62.3892 50.3244 62.4064 50.5252 62.3837 50.7236C62.3611 50.9219 62.2991 51.1138 62.2014 51.2879C62.1036 51.462 61.9721 51.6148 61.8146 51.7374C61.657 51.86 61.4765 51.9499 61.2838 52.0019C61.091 52.0538 60.8898 52.0668 60.692 52.04C59.8513 51.9424 58.9995 52.0237 58.1925 52.2787C57.3854 52.5336 56.6415 52.9564 56.0095 53.5193C55.3775 54.0822 54.8717 54.7724 54.5253 55.5447C54.179 56.3169 54 57.1536 54 58Z" fill="white"/>
</g>
<defs>
<filter id="filter0_ddddd_303_2267" x="-11" y="0" width="142" height="183" filterUnits="userSpaceOnUse" color-interpolation-filters="sRGB">
<feFlood flood-opacity="0" result="BackgroundImageFix"/>
<feColorMatrix in="SourceAlpha" type="matrix" values="0 0 0 0 0 0 0 0 0 0 0 0 0 0 0 0 0 0 127 0" result="hardAlpha"/>
<feOffset dy="-3"/>
<feGaussianBlur stdDeviation="2.5"/>
<feColorMatrix type="matrix" values="0 0 0 0 0 0 0 0 0 0 0 0 0 0 0 0 0 0 0.09 0"/>
<feBlend mode="normal" in2="BackgroundImageFix" result="effect1_dropShadow_303_2267"/>
<feColorMatrix in="SourceAlpha" type="matrix" values="0 0 0 0 0 0 0 0 0 0 0 0 0 0 0 0 0 0 127 0" result="hardAlpha"/>
<feOffset dy="12"/>
<feGaussianBlur stdDeviation="6.5"/>
<feColorMatrix type="matrix" values="0 0 0 0 0 0 0 0 0 0 0 0 0 0 0 0 0 0 0.17 0"/>
<feBlend mode="normal" in2="effect1_dropShadow_303_2267" result="effect2_dropShadow_303_2267"/>
<feColorMatrix in="SourceAlpha" type="matrix" values="0 0 0 0 0 0 0 0 0 0 0 0 0 0 0 0 0 0 127 0" result="hardAlpha"/>
<feOffset dy="4"/>
<feGaussianBlur stdDeviation="3"/>
<feColorMatrix type="matrix" values="0 0 0 0 0 0 0 0 0 0 0 0 0 0 0 0 0 0 0.12 0"/>
<feBlend mode="normal" in2="effect2_dropShadow_303_2267" result="effect3_dropShadow_303_2267"/>
<feColorMatrix in="SourceAlpha" type="matrix" values="0 0 0 0 0 0 0 0 0 0 0 0 0 0 0 0 0 0 127 0" result="hardAlpha"/>
<feOffset dy="-12"/>
<feGaussianBlur stdDeviation="15"/>
<feColorMatrix type="matrix" values="0 0 0 0 0 0 0 0 0 0 0 0 0 0 0 0 0 0 0.12 0"/>
<feBlend mode="normal" in2="effect3_dropShadow_303_2267" result="effect4_dropShadow_303_2267"/>
<feColorMatrix in="SourceAlpha" type="matrix" values="0 0 0 0 0 0 0 0 0 0 0 0 0 0 0 0 0 0 127 0" result="hardAlpha"/>
<feOffset dy="54"/>
<feGaussianBlur stdDeviation="27.5"/>
<feColorMatrix type="matrix" values="0 0 0 0 0 0 0 0 0 0 0 0 0 0 0 0 0 0 0.25 0"/>
<feBlend mode="normal" in2="effect4_dropShadow_303_2267" result="effect5_dropShadow_303_2267"/>
<feBlend mode="normal" in="SourceGraphic" in2="effect5_dropShadow_303_2267" result="shape"/>
</filter>
</defs>
</svg>
