<svg width="13" height="13" viewBox="0 0 13 13" fill="none" xmlns="http://www.w3.org/2000/svg">
<path d="M7.71875 10.5625C7.71875 10.8857 7.59035 11.1957 7.36179 11.4243C7.13323 11.6528 6.82323 11.7812 6.5 11.7812C6.17677 11.7812 5.86677 11.6528 5.63821 11.4243C5.40965 11.1957 5.28125 10.8857 5.28125 10.5625C5.28125 10.2393 5.40965 9.92927 5.63821 9.70071C5.86677 9.47215 6.17677 9.34375 6.5 9.34375C6.82323 9.34375 7.13323 9.47215 7.36179 9.70071C7.59035 9.92927 7.71875 10.2393 7.71875 10.5625ZM7.71875 6.5C7.71875 6.82323 7.59035 7.13323 7.36179 7.36179C7.13323 7.59035 6.82323 7.71875 6.5 7.71875C6.17677 7.71875 5.86677 7.59035 5.63821 7.36179C5.40965 7.13323 5.28125 6.82323 5.28125 6.5C5.28125 6.17677 5.40965 5.86677 5.63821 5.63821C5.86677 5.40965 6.17677 5.28125 6.5 5.28125C6.82323 5.28125 7.13323 5.40965 7.36179 5.63821C7.59035 5.86677 7.71875 6.17677 7.71875 6.5ZM7.71875 2.4375C7.71875 2.76073 7.59035 3.07073 7.36179 3.29929C7.13323 3.52785 6.82323 3.65625 6.5 3.65625C6.17677 3.65625 5.86677 3.52785 5.63821 3.29929C5.40965 3.07073 5.28125 2.76073 5.28125 2.4375C5.28125 2.11427 5.40965 1.80427 5.63821 1.57571C5.86677 1.34715 6.17677 1.21875 6.5 1.21875C6.82323 1.21875 7.13323 1.34715 7.36179 1.57571C7.59035 1.80427 7.71875 2.11427 7.71875 2.4375Z" fill="#024556"/>
</svg>
