<svg width="13" height="13" viewBox="0 0 13 13" fill="none" xmlns="http://www.w3.org/2000/svg">
<g clip-path="url(#clip0_34_8)">
<path fill-rule="evenodd" clip-rule="evenodd" d="M4.23746 1.82434C4.30934 1.60853 4.44732 1.42082 4.63185 1.28782C4.81637 1.15482 5.03808 1.08328 5.26554 1.08334H7.73446C7.96192 1.08328 8.18363 1.15482 8.36816 1.28782C8.55268 1.42082 8.69066 1.60853 8.76254 1.82434L9.05667 2.70834H10.8333C10.977 2.70834 11.1148 2.7654 11.2164 2.86699C11.3179 2.96857 11.375 3.10634 11.375 3.25C11.375 3.39366 11.3179 3.53144 11.2164 3.63302C11.1148 3.7346 10.977 3.79167 10.8333 3.79167H10.2917V10.2917C10.2917 10.7226 10.1205 11.136 9.81572 11.4407C9.51097 11.7455 9.09764 11.9167 8.66667 11.9167H4.33333C3.90236 11.9167 3.48903 11.7455 3.18428 11.4407C2.87954 11.136 2.70833 10.7226 2.70833 10.2917V3.79167H2.16667C2.02301 3.79167 1.88523 3.7346 1.78365 3.63302C1.68207 3.53144 1.625 3.39366 1.625 3.25C1.625 3.10634 1.68207 2.96857 1.78365 2.86699C1.88523 2.7654 2.02301 2.70834 2.16667 2.70834H3.94333L4.23746 1.82434ZM5.08463 2.70834L5.26554 2.16667H7.73446L7.91538 2.70834H5.08463Z" fill="black"/>
</g>
<defs>
<clipPath id="clip0_34_8">
<rect width="13" height="13" fill="white"/>
</clipPath>
</defs>
</svg>
