<svg width="32" height="32" viewBox="0 0 32 32" fill="none" xmlns="http://www.w3.org/2000/svg">
<path d="M21.3333 18.6667C23.0513 18.6668 24.7029 19.3301 25.9437 20.5183C27.1845 21.7065 27.9188 23.3278 27.9933 25.0441L28 25.3334V26.6667C28.0002 27.3395 27.7461 27.9875 27.2887 28.4808C26.8312 28.9741 26.2042 29.2763 25.5333 29.3267L25.3333 29.3334H6.66667C5.9939 29.3336 5.34591 29.0795 4.8526 28.6221C4.35929 28.1646 4.05712 27.5376 4.00667 26.8667L4 26.6667V25.3334C4.0001 23.6155 4.66339 21.9639 5.85155 20.723C7.0397 19.4822 8.661 18.748 10.3773 18.6734L10.6667 18.6667H21.3333ZM16 2.66675C17.7681 2.66675 19.4638 3.36913 20.714 4.61937C21.9643 5.86961 22.6667 7.5653 22.6667 9.33342C22.6667 11.1015 21.9643 12.7972 20.714 14.0475C19.4638 15.2977 17.7681 16.0001 16 16.0001C14.2319 16.0001 12.5362 15.2977 11.286 14.0475C10.0357 12.7972 9.33333 11.1015 9.33333 9.33342C9.33333 7.5653 10.0357 5.86961 11.286 4.61937C12.5362 3.36913 14.2319 2.66675 16 2.66675Z" fill="white"/>
</svg>
