<svg width="36" height="36" viewBox="0 0 36 36" fill="none" xmlns="http://www.w3.org/2000/svg">
<path d="M26.625 3.00146C27.4802 3.00136 28.3035 3.32591 28.9286 3.90952C29.5537 4.49313 29.934 5.29228 29.9925 6.14546L30 6.37496V21.567C29.82 21.687 29.6475 21.828 29.4885 21.987L24.375 27.099L23.013 25.734C22.4141 25.1335 21.6104 24.7815 20.763 24.7485H24.375C24.6734 24.7485 24.9595 24.6299 25.1705 24.419C25.3815 24.208 25.5 23.9218 25.5 23.6235C25.5 23.3251 25.3815 23.0389 25.1705 22.828C24.9595 22.617 24.6734 22.4985 24.375 22.4985H16.869C16.5706 22.4985 16.2845 22.617 16.0735 22.828C15.8625 23.0389 15.744 23.3251 15.744 23.6235C15.744 23.9218 15.8625 24.208 16.0735 24.419C16.2845 24.6299 16.5706 24.7485 16.869 24.7485H20.4885C19.8335 24.7753 19.2005 24.9923 18.6668 25.373C18.1331 25.7536 17.7218 26.2815 17.4832 26.8921C17.2446 27.5027 17.1889 28.1695 17.323 28.8112C17.4572 29.4529 17.7753 30.0416 18.2385 30.5055L20.7255 33H9.375C8.51981 33.0001 7.69647 32.6755 7.07137 32.0919C6.44627 31.5083 6.06603 30.7091 6.0075 29.856L6 29.625V6.37646C5.99989 5.52127 6.32444 4.69793 6.90805 4.07283C7.49166 3.44774 8.29082 3.0675 9.144 3.00897L9.375 3.00146H26.625ZM13.5 11.6265C13.5 11.2286 13.342 10.8471 13.0607 10.5658C12.7794 10.2845 12.3978 10.1265 12 10.1265C11.6022 10.1265 11.2206 10.2845 10.9393 10.5658C10.658 10.8471 10.5 11.2286 10.5 11.6265C10.5 12.0243 10.658 12.4058 10.9393 12.6871C11.2206 12.9684 11.6022 13.1265 12 13.1265C12.3978 13.1265 12.7794 12.9684 13.0607 12.6871C13.342 12.4058 13.5 12.0243 13.5 11.6265ZM16.869 10.5C16.5706 10.5 16.2845 10.6185 16.0735 10.8295C15.8625 11.0404 15.744 11.3266 15.744 11.625C15.744 11.9233 15.8625 12.2095 16.0735 12.4205C16.2845 12.6314 16.5706 12.75 16.869 12.75H24.375C24.6734 12.75 24.9595 12.6314 25.1705 12.4205C25.3815 12.2095 25.5 11.9233 25.5 11.625C25.5 11.3266 25.3815 11.0404 25.1705 10.8295C24.9595 10.6185 24.6734 10.5 24.375 10.5H16.869ZM15.744 17.625C15.744 18.246 16.248 18.75 16.869 18.75H24.375C24.5227 18.75 24.669 18.7209 24.8055 18.6643C24.942 18.6078 25.066 18.5249 25.1705 18.4205C25.275 18.316 25.3578 18.192 25.4144 18.0555C25.4709 17.919 25.5 17.7727 25.5 17.625C25.5 17.4772 25.4709 17.3309 25.4144 17.1944C25.3578 17.058 25.275 16.9339 25.1705 16.8295C25.066 16.725 24.942 16.6421 24.8055 16.5856C24.669 16.5291 24.5227 16.5 24.375 16.5H16.869C16.5706 16.5 16.2845 16.6185 16.0735 16.8295C15.8625 17.0404 15.744 17.3266 15.744 17.625ZM13.5 17.625C13.5 17.2271 13.342 16.8456 13.0607 16.5643C12.7794 16.283 12.3978 16.125 12 16.125C11.6022 16.125 11.2206 16.283 10.9393 16.5643C10.658 16.8456 10.5 17.2271 10.5 17.625C10.5 18.0228 10.658 18.4043 10.9393 18.6856C11.2206 18.9669 11.6022 19.125 12 19.125C12.3978 19.125 12.7794 18.9669 13.0607 18.6856C13.342 18.4043 13.5 18.0228 13.5 17.625ZM13.5 23.622C13.5 23.2241 13.342 22.8426 13.0607 22.5613C12.7794 22.28 12.3978 22.122 12 22.122C11.6022 22.122 11.2206 22.28 10.9393 22.5613C10.658 22.8426 10.5 23.2241 10.5 23.622C10.5 24.0198 10.658 24.4013 10.9393 24.6826C11.2206 24.9639 11.6022 25.122 12 25.122C12.3978 25.122 12.7794 24.9639 13.0607 24.6826C13.342 24.4013 13.5 24.0198 13.5 23.622ZM24.375 30.2835L31.08 23.5785C31.1838 23.4711 31.308 23.3854 31.4453 23.3265C31.5826 23.2676 31.7302 23.2367 31.8796 23.2354C32.029 23.2342 32.1771 23.2627 32.3153 23.3194C32.4535 23.376 32.5791 23.4596 32.6847 23.5653C32.7903 23.671 32.8737 23.7966 32.9302 23.9349C32.9867 24.0732 33.0151 24.2213 33.0138 24.3707C33.0124 24.5201 32.9813 24.6677 32.9223 24.8049C32.8633 24.9421 32.7775 25.0662 32.67 25.17L25.17 32.67C24.9591 32.8806 24.6731 32.999 24.375 32.999C24.0769 32.999 23.7909 32.8806 23.58 32.67L19.83 28.9185C19.6313 28.7052 19.5231 28.4231 19.5282 28.1317C19.5334 27.8402 19.6514 27.5622 19.8576 27.356C20.0637 27.1499 20.3418 27.0318 20.6332 27.0267C20.9247 27.0216 21.2067 27.1297 21.42 27.3285L24.375 30.2835Z" fill="white"/>
</svg>
