<svg width="13" height="13" viewBox="0 0 13 13" fill="none" xmlns="http://www.w3.org/2000/svg">
<path d="M7.92772 7.42192e-07C7.98886 -0.000108467 8.04943 0.0118355 8.10596 0.03515C8.16249 0.0584645 8.21387 0.0926921 8.25716 0.135876L12.8638 4.74261C12.951 4.82987 13 4.94821 13 5.0716C13 5.19499 12.951 5.31332 12.8638 5.40058C12.4171 5.8473 11.8661 5.94781 11.465 5.94781C11.3003 5.94781 11.1533 5.93106 11.0369 5.91151L8.12035 8.82818C8.19713 9.13754 8.24695 9.45297 8.26926 9.77093C8.31206 10.4243 8.23948 11.3409 7.5992 11.9812C7.51194 12.0685 7.39361 12.1175 7.27023 12.1175C7.14684 12.1175 7.02851 12.0685 6.94125 11.9812L4.30851 9.34935L1.34725 12.3107C1.16578 12.4922 0.212814 13.1501 0.0313419 12.9687C-0.15013 12.7872 0.507823 11.8333 0.689295 11.6527L3.65055 8.69137L1.01874 6.05856C0.931505 5.97129 0.8825 5.85296 0.8825 5.72957C0.8825 5.60618 0.931505 5.48784 1.01874 5.40058C1.65901 4.76029 2.57568 4.68677 3.22898 4.73051C3.54693 4.75279 3.86236 4.80261 4.1717 4.87942L7.08829 1.96368C7.06394 1.82196 7.05149 1.67845 7.05106 1.53465C7.05106 1.13447 7.15157 0.58352 7.5992 0.135876C7.68641 0.0488889 7.80454 2.69112e-05 7.92772 7.42192e-07ZM8.04125 1.96368V1.96554C8.06813 2.04741 8.07174 2.13513 8.0517 2.21894C8.03165 2.30274 7.98873 2.37933 7.92772 2.44017L4.63795 5.7291C4.57682 5.78997 4.49998 5.83265 4.416 5.85237C4.33203 5.87209 4.24422 5.86808 4.1624 5.84078H4.16054L4.14751 5.83706C4.05897 5.81054 3.96958 5.78695 3.87949 5.76633C3.64538 5.71172 3.40733 5.67562 3.16756 5.65837C2.77483 5.63232 2.38955 5.66582 2.07407 5.79797L7.20183 10.9249C7.33304 10.6085 7.36655 10.2242 7.34049 9.83142C7.31678 9.49893 7.25687 9.17001 7.16181 8.85052L7.15809 8.83842C7.13061 8.75646 7.1265 8.66753 7.14622 8.58337C7.16595 8.49921 7.20873 8.4222 7.26976 8.36099L10.5605 5.07113C10.6238 5.00738 10.7043 4.96334 10.7922 4.94435C10.88 4.92535 10.9715 4.93222 11.0556 4.96411L11.1449 4.98458C11.2259 5.0004 11.3385 5.01622 11.465 5.01622C11.5711 5.01622 11.6791 5.00599 11.7842 4.979L8.01985 1.21543C7.99286 1.3206 7.98262 1.42948 7.98262 1.53465C7.98308 1.67926 8.00248 1.82318 8.04032 1.96275L8.04125 1.96368Z" fill="#999999"/>
</svg>
