<?xml version="1.0" encoding="UTF-8"?>
<svg id="Ebene_2" data-name="Ebene 2" xmlns="http://www.w3.org/2000/svg" viewBox="0 0 304.84 179.07">
  <defs>
    <style>
      .cls-1 {
        fill: #1d1d1b;
      }

      .cls-2 {
        fill: #e3e3e3;
      }
    </style>
  </defs>
  <g id="Layer_1" data-name="Layer 1">
    <g>
      <path class="cls-1" d="m68.78,139.08h-16.32c-1.76,0-2.72-1.12-2.72-2.72v-3.67c-4.8,4.96-11.04,8-20.32,8-16.48,0-29.43-10.72-29.43-34.55,0-22.23,11.83-34.71,29.59-34.71,7.2,0,14.4,2.4,20.16,7.04v-45.59c0-1.44.96-2.55,2.72-2.55h16.32c1.6,0,2.72,1.11,2.72,2.55v103.49c0,1.6-1.12,2.72-2.72,2.72Zm-45.59-32.95c0,9.92,4.48,16.48,12.96,16.48,4.96,0,9.28-2.24,13.6-7.04v-19.35c-4.32-4.47-8.64-6.71-13.92-6.71-8.32,0-12.64,6.56-12.64,16.63Z"/>
      <path class="cls-1" d="m88.18,75.73c0-1.6,1.28-2.72,2.72-2.72h16.31c1.76,0,2.72,1.12,2.72,2.72v60.62c0,1.6-.96,2.72-2.72,2.72h-16.31c-1.44,0-2.72-1.12-2.72-2.72v-60.62Zm0-21.93c0-6,4.74-10.74,10.74-10.74s11.02,4.74,11.02,10.74-4.74,10.88-11.02,10.88-10.74-4.74-10.74-10.88Z"/>
      <path class="cls-1" d="m145.46,105.64c0,10.56,5.76,16.96,15.67,16.96,4.96,0,9.44-1.6,13.12-3.84,2.4-1.28,3.36-.48,4.32,1.44l4.8,11.19c.64,1.28.48,2.24-1.6,3.52-5.76,3.68-13.43,5.76-22.55,5.76-23.2,0-36.31-12.32-36.31-34.55s13.12-34.71,34.55-34.71c9.27,0,17.92,2.72,22.87,5.28,1.92.96,1.92,2.4,1.28,3.84l-4.16,11.52c-.8,1.91-1.92,2.72-3.84,1.6-4.16-2.4-8.96-4.15-13.76-4.15-8.95,0-14.39,6.08-14.39,16.15Z"/>
      <path class="cls-1" d="m194.92,75.73c0-1.6,1.28-2.72,2.72-2.72h16.31c1.76,0,2.72,1.12,2.72,2.72v60.62c0,1.6-.96,2.72-2.72,2.72h-16.31c-1.44,0-2.72-1.12-2.72-2.72v-60.62Z"/>
      <path class="cls-1" d="m233.33,75.73c0-1.6,1.28-2.72,2.72-2.72h16.48c1.6,0,2.72,1.12,2.72,2.72v3.52c4.8-4.8,10.88-7.84,20.16-7.84,16.48,0,29.44,10.72,29.44,34.71,0,22.08-11.84,34.55-29.59,34.55-7.04,0-14.24-2.24-20-6.88v42.55c0,1.6-1.12,2.72-2.72,2.72h-16.48c-1.44,0-2.72-1.12-2.72-2.72v-100.61Zm48.47,30.39c0-10.07-4.64-16.63-12.96-16.63-5.12,0-9.27,2.24-13.6,6.88v19.84c4.32,4.32,8.48,6.4,13.76,6.4,8.32,0,12.8-6.56,12.8-16.48Z"/>
    </g>
    <g>
      <g>
        <path class="cls-1" d="m203.9,63.33c-5.91-2.69-12.98-8.16-15.44-15.62-1.96-5.93-1.51-12.29,1.29-18.42-.77-1.03-1.36-2.15-1.76-3.35-.98-2.96-.74-6.12.66-8.9,1.4-2.78,3.8-4.85,6.76-5.83,1.18-.39,2.41-.59,3.64-.59,2.47,0,4.91.8,6.91,2.27,1.83-.93,3.73-1.73,5.66-2.36,2.24-.74,4.57-1.28,6.92-1.62,1.08-3.71,3.87-6.62,7.53-7.83,1.19-.39,2.43-.59,3.67-.59,1.82,0,3.58.42,5.23,1.25,2.78,1.4,4.85,3.8,5.83,6.76.49,1.5.68,3.06.54,4.64,5.38,3.25,9.19,7.9,11.03,13.48,2.23,6.75,1.52,14.08-1.98,20.67-4.19,7.88-11.97,13.91-21.34,16.56-4.43,1.25-8.45,1.52-11.07,1.52l-12.99,18.43-1.1-20.47Zm-8.4-29.94c-1.57,4.1-1.73,8.29-.46,12.15,2.74,8.28,13.14,12.05,13.25,12.09l2.28.72.28,5.12,3.7-5.25,1.99.18s.56.04,1.44.04c1.77,0,5.31-.16,9.2-1.26,7.56-2.13,13.79-6.92,17.1-13.14,2.6-4.9,3.14-10.31,1.51-15.24-1.21-3.66-3.66-6.81-7.11-9.15-1.39,1.67-3.21,2.91-5.29,3.59-1.19.39-2.42.59-3.66.59-1.82,0-3.58-.42-5.23-1.25-2.75-1.39-4.81-3.75-5.8-6.67-1.66.28-3.31.69-4.89,1.21-1.24.41-2.48.9-3.69,1.47,0,.02.01.03.02.05.98,2.96.74,6.12-.66,8.9-1.4,2.78-3.8,4.85-6.76,5.83-1.19.39-2.42.59-3.66.59s-2.4-.19-3.55-.56Zm3.55-15.83c-.5,0-1,.08-1.48.24-2.47.82-3.82,3.49-3,5.97.39,1.2,1.23,2.17,2.36,2.74.67.34,1.38.51,2.12.51.5,0,1-.08,1.49-.24,1.2-.4,2.17-1.23,2.74-2.36.57-1.13.66-2.41.27-3.61-.64-1.94-2.45-3.25-4.49-3.25Zm30.68-10.13c-.5,0-1,.08-1.49.24-.92.3-1.72.89-2.31,1.68-.56.77-.88,1.68-.91,2.64-.02.6.05,1.14.22,1.64.11.34.28.68.53,1.07.46.72,1.1,1.3,1.83,1.67.67.34,1.38.51,2.12.51.5,0,1-.08,1.48-.24.47-.16.92-.4,1.38-.75.59-.45,1.05-.99,1.36-1.61.11-.22.18-.44.26-.67.3-.91.31-1.88.04-2.79l-.03-.12c-.4-1.22-1.24-2.19-2.37-2.76-.67-.34-1.38-.51-2.12-.51Z"/>
        <path class="cls-2" d="m229.74,1c1.72,0,3.43.4,5.01,1.2,2.66,1.34,4.64,3.64,5.58,6.47.51,1.55.66,3.17.49,4.75,5.2,3.07,9.19,7.63,11.08,13.37,2.18,6.61,1.49,13.81-1.94,20.28-4.12,7.76-11.79,13.7-21.03,16.31-4.57,1.29-8.69,1.5-10.99,1.5-.07,0-.13,0-.2,0l-12.31,17.46-1.04-19.33c-4.52-2-12.7-7.11-15.45-15.44-2.01-6.08-1.34-12.5,1.4-18.33-.81-1.02-1.45-2.17-1.87-3.44-.93-2.83-.71-5.85.63-8.52,1.34-2.66,3.64-4.64,6.47-5.58,1.16-.38,2.33-.56,3.49-.56,2.51,0,4.92.85,6.86,2.36,1.85-.96,3.81-1.8,5.87-2.48,2.39-.79,4.78-1.32,7.16-1.64.92-3.54,3.56-6.57,7.29-7.8,1.15-.38,2.33-.57,3.51-.57m-.02,16.39c.55,0,1.1-.09,1.64-.27.56-.19,1.07-.48,1.53-.83.62-.47,1.14-1.07,1.5-1.79.12-.24.2-.49.29-.74.33-1,.35-2.07.05-3.09-.02-.05-.02-.11-.04-.16h0c-.44-1.33-1.37-2.4-2.61-3.03-.74-.37-1.54-.56-2.35-.56-.55,0-1.1.09-1.64.27-1.07.35-1.93,1.02-2.55,1.86-.62.84-.97,1.86-1.01,2.92-.02.6.04,1.22.24,1.82.14.43.35.81.58,1.18.5.78,1.18,1.42,2.03,1.85.74.37,1.54.56,2.35.56m-30.68,16.06c-1.3,0-2.6-.23-3.84-.69-1.71,4.2-2.04,8.69-.64,12.94,2.82,8.55,13.45,12.37,13.56,12.4l1.96.62.33,6.22,4.37-6.2,1.7.15s.56.04,1.48.04c1.91,0,5.44-.18,9.33-1.28,7.69-2.17,14.04-7.05,17.4-13.38,2.67-5.02,3.22-10.57,1.55-15.63-1.34-4.05-4.08-7.33-7.69-9.67-1.35,1.76-3.19,3.08-5.34,3.79-1.15.38-2.33.57-3.51.57h0c-1.72,0-3.43-.4-5.01-1.2-2.66-1.34-4.64-3.64-5.58-6.47-.03-.11-.06-.21-.09-.32-1.79.28-3.6.71-5.41,1.3-1.45.48-2.84,1.05-4.16,1.69.06.15.12.3.18.46.93,2.83.71,5.86-.63,8.52-1.34,2.66-3.64,4.64-6.47,5.58-1.15.38-2.33.57-3.51.57m0-5.94c.55,0,1.1-.09,1.64-.27,1.32-.44,2.4-1.36,3.03-2.61.63-1.25.73-2.66.3-3.99h0c-.72-2.19-2.77-3.59-4.97-3.59-.54,0-1.09.08-1.63.26-2.73.9-4.23,3.86-3.32,6.6.44,1.33,1.36,2.4,2.61,3.03.74.37,1.54.56,2.35.56M229.74,0c-1.29,0-2.58.21-3.82.62-3.71,1.23-6.57,4.14-7.76,7.85-2.28.34-4.52.88-6.69,1.59-1.86.61-3.7,1.37-5.46,2.26-2.04-1.42-4.48-2.19-6.96-2.19-1.29,0-2.57.21-3.8.61-3.08,1.02-5.59,3.18-7.05,6.08-1.46,2.9-1.7,6.2-.69,9.28.38,1.16.94,2.25,1.66,3.25-2.74,6.17-3.16,12.56-1.19,18.52,3.03,9.18,11.96,14.16,15.43,15.79l1.01,18.73.16,2.88,1.66-2.36,12.01-17.04c2.65-.02,6.6-.32,10.94-1.54,9.5-2.68,17.39-8.8,21.64-16.8,3.56-6.7,4.28-14.18,2.01-21.06-1.85-5.6-5.64-10.28-10.98-13.59.09-1.54-.1-3.06-.59-4.52-1.02-3.08-3.18-5.59-6.08-7.05-1.72-.87-3.55-1.31-5.46-1.31h0Zm-.02,16.39c-.66,0-1.3-.15-1.9-.45-.66-.33-1.21-.84-1.63-1.49-.23-.35-.38-.66-.48-.96-.15-.45-.21-.93-.19-1.47.03-.86.31-1.68.82-2.36.53-.71,1.24-1.23,2.06-1.51.43-.14.88-.21,1.33-.21.66,0,1.3.15,1.9.45,1,.5,1.74,1.36,2.1,2.41.01.06.02.12.04.17.24.82.23,1.68-.04,2.49-.08.24-.14.43-.23.6-.28.55-.69,1.04-1.22,1.44-.41.31-.81.53-1.23.67-.43.14-.88.22-1.33.22h0Zm-19.01,2.46c1.06-.48,2.15-.9,3.23-1.26,1.43-.47,2.91-.85,4.41-1.12,1.08,2.86,3.16,5.17,5.9,6.55,1.72.87,3.55,1.31,5.45,1.31,1.3,0,2.58-.21,3.83-.62,2.02-.67,3.81-1.83,5.22-3.4,3.17,2.25,5.42,5.22,6.55,8.64,1.58,4.8,1.06,10.07-1.48,14.85-3.24,6.1-9.36,10.8-16.79,12.89-3.83,1.08-7.32,1.24-9.06,1.24-.89,0-1.4-.04-1.4-.04l-1.7-.15-.57-.05-.33.47-2.71,3.84-.18-3.34-.04-.69-.66-.21-1.96-.62c-.08-.03-10.27-3.78-12.91-11.76-1.19-3.61-1.09-7.53.29-11.38,1.06.3,2.15.45,3.24.45,1.29,0,2.58-.21,3.82-.62,3.08-1.02,5.59-3.18,7.05-6.08,1.4-2.78,1.68-5.93.81-8.9h0Zm-11.67,7.66c-.66,0-1.3-.15-1.9-.45-1.01-.51-1.76-1.38-2.11-2.45-.73-2.21.48-4.61,2.69-5.34.43-.14.87-.21,1.32-.21,1.83,0,3.44,1.17,4.02,2.9.35,1.07.27,2.22-.24,3.23-.51,1.01-1.38,1.76-2.45,2.11-.43.14-.88.21-1.33.21h0Z"/>
      </g>
      <g>
        <path class="cls-1" d="m214.12,49.68c-5.56,0-9.42-1.27-9.46-1.28-1.19-.4-1.84-1.69-1.44-2.89.31-.93,1.18-1.56,2.16-1.56.25,0,.49.04.72.12.14.05,3.48,1.13,8.14,1.13,6.26,0,15.22-1.95,22.36-11.26.44-.57,1.1-.89,1.81-.89.51,0,.99.16,1.39.47,1,.77,1.19,2.2.42,3.2-8.21,10.71-18.73,12.95-26.1,12.95Z"/>
        <path class="cls-2" d="m238.41,33.56c.38,0,.76.12,1.08.37.78.6.93,1.72.33,2.5-8.06,10.51-18.37,12.76-25.71,12.76-5.42,0-9.21-1.22-9.3-1.25-.93-.31-1.44-1.32-1.12-2.25.25-.74.94-1.22,1.69-1.22.19,0,.38.03.56.09.32.1,3.63,1.16,8.3,1.16,6.47,0,15.53-2.03,22.76-11.45.35-.46.88-.7,1.41-.7m0-1h0c-.87,0-1.68.4-2.21,1.09-7.01,9.14-15.81,11.06-21.96,11.06-4.58,0-7.85-1.06-7.98-1.11-.28-.09-.58-.14-.88-.14-1.2,0-2.25.76-2.63,1.9-.24.7-.18,1.46.15,2.12.33.66.9,1.16,1.61,1.4.04.01,3.95,1.3,9.62,1.3,7.49,0,18.16-2.28,26.5-13.15.93-1.22.7-2.97-.51-3.9-.49-.38-1.07-.57-1.69-.57h0Z"/>
      </g>
    </g>
  </g>
</svg>