<svg width="322" height="320" viewBox="0 0 322 320" fill="none" xmlns="http://www.w3.org/2000/svg">
<path d="M308.57 8.94751V66.8523H225.101L222.094 9.34804L308.57 8.94751Z" fill="#E0E0E0"/>
<path d="M222.094 9.34801V66.7307H305.562V9.34801L222.094 9.34801Z" fill="white"/>
<path d="M305.964 67.1241H221.699V8.95459H305.964V67.1241ZM222.489 66.3373H305.167V9.74134H222.489V66.3373Z" fill="#E0E0E0"/>
<path d="M296.525 16.4788H231.138V59.5998H296.525V16.4788Z" fill="white"/>
<path d="M296.525 16.4788H296.201H295.275H291.686L278.213 16.5289L231.145 16.6219L231.332 16.4359C231.332 29.6104 231.332 44.2082 231.332 59.5498L231.131 59.3424L296.517 59.3853L296.352 59.5498C296.388 46.4254 296.417 35.6684 296.438 28.1728C296.438 24.4322 296.474 21.5069 296.481 19.4971C296.481 18.5101 296.481 17.7519 296.481 17.2227C296.481 16.7005 296.481 16.4288 296.481 16.4288C296.481 16.4288 296.481 16.6791 296.481 17.1869C296.481 17.6947 296.481 18.46 296.481 19.4327C296.481 21.4353 296.481 24.3463 296.525 28.0727C296.525 35.5897 296.575 46.3825 296.611 59.5427V59.7072H296.446L231.059 59.7501H230.851V59.5427C230.851 44.201 230.851 29.6033 230.851 16.4288V16.2428H231.045L278.371 16.3858L291.801 16.4359H295.354H296.259L296.525 16.4788Z" fill="#E0E0E0"/>
<path d="M222.094 9.19067C222.609 9.43802 223.091 9.74793 223.529 10.1133C224.384 10.7284 225.546 11.601 226.803 12.6023C228.059 13.6036 229.164 14.5477 229.94 15.263C230.39 15.6152 230.793 16.0239 231.138 16.4788C229.548 15.3644 228.014 14.1708 226.544 12.9027C224.986 11.7577 223.499 10.518 222.094 9.19067Z" fill="#E0E0E0"/>
<path d="M305.569 9.34802C304.194 10.6911 302.726 11.9363 301.176 13.0744C299.707 14.3161 298.153 15.4538 296.525 16.4788C297.898 15.1339 299.366 13.8886 300.918 12.7525C302.386 11.5107 303.941 10.3731 305.569 9.34802Z" fill="#E0E0E0"/>
<path d="M305.497 66.7379L296.166 59.2208L305.497 66.7379Z" fill="white"/>
<path d="M296.194 59.2208C297.867 60.3042 299.464 61.499 300.975 62.797C302.571 63.9986 304.082 65.3081 305.497 66.7164C303.825 65.633 302.228 64.4383 300.717 63.1403C299.121 61.9387 297.61 60.6291 296.194 59.2208Z" fill="#E0E0E0"/>
<path d="M222.094 66.7306C223.453 65.3985 224.907 64.1651 226.444 63.04C227.893 61.8086 229.431 60.685 231.045 59.6785C229.686 61.0091 228.232 62.2401 226.695 63.3619C225.245 64.5941 223.707 65.72 222.094 66.7306Z" fill="#E0E0E0"/>
<path d="M244.411 29.9107V44.3512H285.556V29.9107H244.411Z" fill="#E0E0E0"/>
<path d="M247.993 319.278H322V105.246H247.993L247.993 319.278Z" fill="#3A3E47"/>
<path d="M208.269 319.278H289.296V105.246H208.269L208.269 319.278Z" fill="#F5F5F5"/>
<path d="M258.014 269.333H236.364C235.955 269.333 235.562 269.171 235.273 268.883C234.983 268.594 234.821 268.203 234.821 267.796V266.515H259.557V267.796C259.557 268.203 259.394 268.594 259.105 268.883C258.815 269.171 258.423 269.333 258.014 269.333Z" fill="#E0E0E0"/>
<path d="M211.85 266.515C211.85 266.515 211.85 266.773 211.85 267.288C211.85 267.803 211.85 268.582 211.85 269.584C211.85 271.622 211.85 274.59 211.807 278.417C211.807 286.105 211.757 297.163 211.721 310.702V310.867H211.886L284.092 310.909H284.336V310.702C284.336 295.067 284.336 280.155 284.336 266.58V266.394H284.113L232.014 266.437L217.148 266.472H213.207H212.195H211.865H212.224H213.25H217.227L232.143 266.537L284.113 266.68L283.92 266.487C283.92 280.076 283.92 294.974 283.92 310.609L284.128 310.409H284.085L211.879 310.452L212.037 310.609C212.001 297.113 211.972 286.084 211.951 278.424C211.951 274.59 211.951 271.601 211.915 269.555C211.915 268.539 211.915 267.767 211.915 267.231C211.915 266.694 211.85 266.515 211.85 266.515Z" fill="#E0E0E0"/>
<path d="M235.797 283.101H257.295V277.315H235.797V283.101Z" fill="#E0E0E0"/>
<path d="M258.997 217.837H237.354C236.945 217.837 236.553 217.675 236.263 217.387C235.974 217.098 235.811 216.707 235.811 216.299V215.019H260.54V216.299C260.54 216.707 260.377 217.098 260.088 217.387C259.799 217.675 259.406 217.837 258.997 217.837Z" fill="#E0E0E0"/>
<path d="M212.051 215.012C212.051 215.012 212.051 215.269 212.051 215.784C212.051 216.299 212.051 217.086 212.051 218.08C212.051 220.118 212.051 223.087 212.008 226.913C212.008 234.602 211.958 245.659 211.922 259.206V259.363H212.087L284.293 259.406H284.537V259.206C284.537 243.564 284.537 228.651 284.537 215.083V214.89H284.35L232.251 214.933L217.385 214.976H213.444H212.432H212.102H212.46H213.487H217.464L232.38 215.047L284.35 215.183L284.156 214.997C284.156 228.587 284.156 243.478 284.156 259.12L284.365 258.912H284.322L212.116 258.955L212.274 259.12C212.238 245.616 212.209 234.595 212.188 226.935C212.188 223.101 212.188 220.111 212.188 218.066C212.188 217.057 212.188 216.278 212.188 215.741C212.188 215.205 212.051 215.012 212.051 215.012Z" fill="#E0E0E0"/>
<path d="M237.419 231.255H258.918V225.468H237.419V231.255Z" fill="#E0E0E0"/>
<path d="M258.057 113.907H236.407C235.998 113.907 235.605 113.745 235.316 113.457C235.027 113.168 234.864 112.777 234.864 112.369V111.089H259.6V112.369C259.6 112.571 259.56 112.771 259.483 112.958C259.405 113.144 259.291 113.314 259.148 113.457C259.005 113.599 258.835 113.713 258.647 113.79C258.46 113.867 258.259 113.907 258.057 113.907Z" fill="#E0E0E0"/>
<path d="M211.886 111.082C211.886 111.082 211.886 111.339 211.886 111.854C211.886 112.369 211.886 113.156 211.886 114.15C211.886 116.189 211.886 119.157 211.85 122.983C211.85 130.672 211.8 141.729 211.764 155.276V155.433H211.922L284.135 155.483H284.379V155.276C284.379 139.634 284.379 124.721 284.379 111.153V110.96H284.113L232.021 111.003L217.148 111.046H213.207H212.202H211.865C211.984 111.052 212.104 111.052 212.224 111.046H213.25H217.234L232.143 111.111L284.113 111.246L283.92 111.06C283.92 124.65 283.92 139.541 283.92 155.183L284.128 154.975L211.915 155.018L212.08 155.183C212.044 141.679 212.015 130.658 211.994 122.998C211.994 119.164 211.958 116.174 211.951 114.129C211.951 113.12 211.951 112.341 211.951 111.804C211.951 111.268 211.886 111.082 211.886 111.082Z" fill="#E0E0E0"/>
<path d="M236.866 126.288H258.365V120.502H236.866V126.288Z" fill="#E0E0E0"/>
<path d="M258.057 165.854H236.407C235.998 165.854 235.605 165.692 235.316 165.404C235.026 165.115 234.864 164.724 234.864 164.316V162.993H259.6V164.273C259.606 164.479 259.57 164.684 259.495 164.875C259.42 165.067 259.307 165.241 259.163 165.389C259.02 165.536 258.848 165.653 258.657 165.733C258.467 165.813 258.263 165.854 258.057 165.854Z" fill="#E0E0E0"/>
<path d="M211.886 163.007C211.886 163.007 211.886 163.265 211.886 163.78C211.886 164.295 211.886 165.074 211.886 166.076C211.886 168.114 211.886 171.082 211.85 174.909C211.85 182.597 211.8 193.655 211.764 207.194V207.352H211.922L284.135 207.394H284.379V207.187C284.379 191.552 284.379 176.64 284.379 163.065V162.879H284.113L232.021 162.922H217.148H213.207H212.202H211.865H212.224H213.25H217.234L232.143 162.986L284.113 163.129L283.92 162.936C283.92 176.525 283.92 191.423 283.92 207.058L284.128 206.858L211.915 206.901L212.08 207.058C212.044 193.562 212.015 182.533 211.994 174.873C211.994 171.039 211.958 168.05 211.951 166.004C211.951 164.989 211.951 164.216 211.951 163.68C211.951 163.143 211.886 163.007 211.886 163.007Z" fill="#E0E0E0"/>
<path d="M236.866 178.22H258.365V172.434H236.866V178.22Z" fill="#E0E0E0"/>
<path d="M94.3434 7.50293H16.7542V76.6654H94.3434V7.50293Z" fill="#FAFAFA"/>
<path d="M94.343 76.6652C94.343 76.6652 94.343 76.2218 94.343 75.3778C94.343 74.5338 94.343 73.2894 94.343 71.6729C94.343 68.4258 94.343 63.6838 94.2928 57.633C94.2928 45.5528 94.2425 28.3087 94.2066 7.50271L94.3789 7.67437H16.7968L17.005 7.46695C17.005 32.6287 17.005 56.3027 17.005 76.6295L16.8184 76.4435L72.9376 76.5365L88.7655 76.5865H92.9576H94.0343H94.4076H94.0559H92.9935H88.8445L73.0524 76.6295L16.8184 76.7224H16.6389V76.5436C16.6389 56.2169 16.6389 32.5428 16.6389 7.38112V7.17371H16.8543H94.4363H94.6158V7.35251C94.5727 28.1799 94.544 45.4813 94.5225 57.5973C94.5225 63.6266 94.4866 68.3257 94.4794 71.5943C94.4794 73.1964 94.4794 74.4552 94.4794 75.2705C94.4794 76.0859 94.343 76.6652 94.343 76.6652Z" fill="#E0E0E0"/>
<path d="M46.5147 19.7905C46.5147 19.905 42.4303 19.9981 37.3912 19.9981C32.3521 19.9981 28.2749 19.905 28.2749 19.7905C28.2749 19.676 32.3521 19.583 37.3912 19.583C42.4303 19.583 46.5147 19.676 46.5147 19.7905Z" fill="#E0E0E0"/>
<path d="M79.3838 24.9686C79.3838 25.0831 68.1643 25.1762 54.3247 25.1762C40.4851 25.1762 29.2871 25.0974 29.2871 24.9686C29.2871 24.8398 40.5066 24.7611 54.3462 24.7611C68.1858 24.7611 79.3838 24.8685 79.3838 24.9686Z" fill="#E0E0E0"/>
<path d="M31.6631 33.7802H28.397V37.0344H31.6631V33.7802Z" fill="#E0E0E0"/>
<path d="M39.7099 33.7802H36.4438V37.0344H39.7099V33.7802Z" fill="#E0E0E0"/>
<path d="M47.9072 33.63H44.6411V36.8843H47.9072V33.63Z" fill="#E0E0E0"/>
<path d="M55.8032 33.7802H52.5371V37.0344H55.8032V33.7802Z" fill="#E0E0E0"/>
<path d="M63.8503 33.7802H60.5842V37.0344H63.8503V33.7802Z" fill="#E0E0E0"/>
<path d="M71.8969 33.7802H68.6309V37.0344H71.8969V33.7802Z" fill="#E0E0E0"/>
<path d="M79.9438 33.7802H76.6777V37.0344H79.9438V33.7802Z" fill="#EBEBEB"/>
<path d="M31.6631 40.7036H28.397V43.9579H31.6631V40.7036Z" fill="#EBEBEB"/>
<path d="M39.7099 40.7036H36.4438V43.9579H39.7099V40.7036Z" fill="#E0E0E0"/>
<path d="M47.7566 40.7036H44.4905V43.9579H47.7566V40.7036Z" fill="#EBEBEB"/>
<path d="M55.8032 40.7036H52.5371V43.9579H55.8032V40.7036Z" fill="#E0E0E0"/>
<path d="M63.8503 40.7036H60.5842V43.9579H63.8503V40.7036Z" fill="#E0E0E0"/>
<path d="M72.0405 40.5533H68.7744V43.8076H72.0405V40.5533Z" fill="#E0E0E0"/>
<path d="M79.9438 40.7036H76.6777V43.9579H79.9438V40.7036Z" fill="#E0E0E0"/>
<path d="M31.6631 47.627H28.397V50.8812H31.6631V47.627Z" fill="#E0E0E0"/>
<path d="M39.8606 47.4768H36.5945V50.7311H39.8606V47.4768Z" fill="#E0E0E0"/>
<path d="M47.7566 47.627H44.4905V50.8812H47.7566V47.627Z" fill="#E0E0E0"/>
<path d="M55.8032 47.627H52.5371V50.8812H55.8032V47.627Z" fill="#EBEBEB"/>
<path d="M63.8503 47.627H60.5842V50.8812H63.8503V47.627Z" fill="#E0E0E0"/>
<path d="M71.8969 47.627H68.6309V50.8812H71.8969V47.627Z" fill="#E0E0E0"/>
<path d="M79.9438 47.627H76.6777V50.8812H79.9438V47.627Z" fill="#E0E0E0"/>
<path d="M31.6631 54.5503H28.397V57.8046H31.6631V54.5503Z" fill="#E0E0E0"/>
<path d="M39.7099 54.5503H36.4438V57.8046H39.7099V54.5503Z" fill="#E0E0E0"/>
<path d="M47.7566 54.5503H44.4905V57.8046H47.7566V54.5503Z" fill="#E0E0E0"/>
<path d="M55.9541 54.4073H52.688V57.6616H55.9541V54.4073Z" fill="#E0E0E0"/>
<path d="M63.8503 54.5503H60.5842V57.8046H63.8503V54.5503Z" fill="#E0E0E0"/>
<path d="M71.8969 54.5503H68.6309V57.8046H71.8969V54.5503Z" fill="#EBEBEB"/>
<path d="M79.9438 54.5503H76.6777V57.8046H79.9438V54.5503Z" fill="#E0E0E0"/>
<path d="M31.6631 61.4738H28.397V64.728H31.6631V61.4738Z" fill="#E0E0E0"/>
<path d="M39.7099 61.4738H36.4438V64.728H39.7099V61.4738Z" fill="#EBEBEB"/>
<path d="M47.7566 61.4738H44.4905V64.728H47.7566V61.4738Z" fill="#E0E0E0"/>
<path d="M55.8032 61.4738H52.5371V64.728H55.8032V61.4738Z" fill="#E0E0E0"/>
<path d="M63.8503 61.4738H60.5842V64.728H63.8503V61.4738Z" fill="#E0E0E0"/>
<path d="M72.0405 61.3307H68.7744V64.585H72.0405V61.3307Z" fill="#E0E0E0"/>
<path d="M79.9438 61.4738H76.6777V64.728H79.9438V61.4738Z" fill="#E0E0E0"/>
<path d="M159.563 110.482L132.806 120.519L139.596 138.491L166.354 128.454L159.563 110.482Z" fill="#EBEBEB"/>
<path d="M159.73 110.682C159.69 110.799 159.637 110.912 159.572 111.018L159.076 111.947C158.617 112.77 157.978 113.929 157.196 115.345C155.573 118.206 153.348 122.168 150.893 126.538L150.843 126.631H150.735L150.491 126.552L138.087 122.497L134.333 121.238L133.321 120.888C133.199 120.852 133.081 120.804 132.969 120.745C133.093 120.768 133.215 120.799 133.335 120.838L134.369 121.145L138.145 122.325L150.599 126.273L150.843 126.352L150.685 126.417C153.176 122.061 155.415 118.127 157.059 115.259L159.005 111.897L159.55 110.989C159.601 110.881 159.661 110.779 159.73 110.682Z" fill="#E0E0E0"/>
<path d="M139.76 138.69C139.695 138.69 140.772 135.45 142.179 131.502C143.586 127.554 144.77 124.349 144.835 124.4C144.899 124.45 143.823 127.647 142.423 131.552C141.023 135.457 139.832 138.69 139.76 138.69Z" fill="#E0E0E0"/>
<path d="M153.65 120.845C153.686 120.78 156.6 122.483 160.153 124.635C163.706 126.788 166.556 128.591 166.52 128.655C166.484 128.719 163.57 127.017 160.017 124.857C156.464 122.697 153.614 120.902 153.65 120.845Z" fill="#E0E0E0"/>
<path d="M194.214 53.7565C194.897 53.3433 195.634 53.0233 196.403 52.8053L196.855 50.6596L200.516 50.5952L201.047 52.7409C201.823 52.9297 202.569 53.2233 203.265 53.6135L205.117 52.4047L207.752 54.9366L206.603 56.8248C207.017 57.4937 207.339 58.2155 207.558 58.9705L209.711 59.414L209.776 63.0688L207.622 63.5909C207.431 64.3645 207.139 65.1099 206.754 65.8081L207.967 67.6462L205.419 70.2711L203.531 69.1339C202.845 69.5421 202.109 69.8595 201.342 70.078L200.889 72.2237L197.228 72.2881L196.697 70.1424C195.922 69.9504 195.177 69.657 194.479 69.2698L192.627 70.4785L189.993 67.9395L191.141 66.0584C190.725 65.3778 190.404 64.6439 190.187 63.877L188.033 63.4264L187.969 59.7787L190.122 59.2495C190.312 58.4777 190.604 57.7346 190.991 57.0394L189.777 55.1941L192.326 52.5692L194.214 53.7136V53.7565ZM196.166 58.6129C195.624 59.1698 195.261 59.8744 195.121 60.6374C194.981 61.4004 195.072 62.1875 195.381 62.8991C195.691 63.6107 196.205 64.2149 196.86 64.6351C197.514 65.0552 198.279 65.2726 199.057 65.2595C199.835 65.2465 200.592 65.0037 201.232 64.5619C201.871 64.1201 202.365 63.499 202.651 62.7775C202.936 62.0559 203 61.2662 202.835 60.5083C202.669 59.7504 202.282 59.0584 201.722 58.5199C201.353 58.1604 200.917 57.8768 200.438 57.6854C199.959 57.4941 199.447 57.3986 198.931 57.4046C198.415 57.4106 197.905 57.5179 197.43 57.7203C196.956 57.9227 196.526 58.2163 196.166 58.5843V58.6129Z" fill="#E0E0E0"/>
<path d="M196.166 58.5843C196.37 58.3358 196.613 58.1209 196.884 57.9478C197.357 57.642 197.89 57.44 198.447 57.355C199.004 57.2701 199.573 57.3041 200.116 57.455C200.659 57.6058 201.164 57.8699 201.597 58.2299C202.03 58.5898 202.381 59.0373 202.627 59.5427C202.982 60.2552 203.114 61.0574 203.007 61.8458C202.892 62.6949 202.51 63.486 201.916 64.1059C201.318 64.7207 200.538 65.1292 199.691 65.2717C199.291 65.3359 198.884 65.3359 198.485 65.2717C198.098 65.2236 197.72 65.1175 197.365 64.957C196.71 64.6608 196.145 64.1968 195.728 63.6124C195.371 63.1009 195.14 62.5128 195.054 61.8958C194.918 61.0037 195.1 60.0923 195.57 59.321C195.734 59.0516 195.94 58.8101 196.181 58.6058C196.181 58.6058 195.944 58.8633 195.642 59.3997C195.221 60.1648 195.069 61.0489 195.212 61.9101C195.305 62.4989 195.536 63.0576 195.886 63.5408C196.287 64.0925 196.827 64.5291 197.451 64.8068C197.787 64.9551 198.142 65.0539 198.506 65.1C198.887 65.1606 199.274 65.1606 199.655 65.1C200.455 64.9641 201.192 64.5784 201.758 63.9986C202.32 63.4091 202.681 62.6584 202.792 61.8529C202.882 61.1189 202.76 60.3745 202.44 59.7072C202.142 59.0922 201.687 58.5666 201.119 58.1838C200.622 57.8536 200.054 57.6452 199.461 57.5758C198.594 57.464 197.714 57.6454 196.963 58.0908C196.417 58.3697 196.188 58.6344 196.166 58.5843Z" fill="#E0E0E0"/>
<path d="M194.213 53.7565L194.091 53.6921L193.732 53.4847L192.297 52.6407H192.34L189.813 55.2871V55.2156L191.033 57.0537C190.65 57.7462 190.363 58.4873 190.179 59.2566V59.2995H190.136L187.983 59.8359L188.04 59.7572C188.04 60.9016 188.09 62.1247 188.112 63.4049L188.047 63.3191L190.201 63.7625H190.251V63.8126C190.47 64.5665 190.789 65.288 191.199 65.9583V66.0083V66.0584L190.079 68.0396V67.9108L192.72 70.4427H192.591L194.436 69.2269L194.493 69.1911L194.551 69.2269C195.242 69.6086 195.98 69.8972 196.747 70.0851H196.812V70.1495L197.336 72.2952L197.228 72.2165L200.889 72.1521L200.781 72.238C200.925 71.5227 201.083 70.8075 201.234 70.0923V70.0279H201.298C202.056 69.8163 202.781 69.501 203.452 69.091H203.516H203.574L205.462 70.2353H205.325L207.866 67.6104V67.7463C207.457 67.1241 207.048 66.509 206.653 65.9011L206.617 65.8438V65.7866C207.004 65.099 207.296 64.3629 207.486 63.598V63.5336H207.551L209.704 63.0115L209.625 63.1188C209.625 61.8743 209.603 60.6584 209.56 59.4712L209.647 59.5713L207.493 59.1135H207.436V59.0492C207.222 58.2957 206.908 57.5741 206.502 56.9035V56.8534V56.8034L207.651 54.9152V55.0296L205.024 52.4905H205.131L203.279 53.6921H203.236H203.193C202.5 53.3082 201.759 53.0172 200.99 52.8267H200.947V52.7838C200.76 52.0042 200.588 51.3033 200.423 50.6381L200.494 50.6882L196.826 50.7311H196.877C196.69 51.5893 196.539 52.2974 196.41 52.8768C195.832 53.0337 195.271 53.2494 194.737 53.5205L194.343 53.7207L194.206 53.7923C194.243 53.7585 194.284 53.7296 194.328 53.7064L194.716 53.4847C195.249 53.2018 195.809 52.9741 196.388 52.8052C196.503 52.2187 196.647 51.5107 196.819 50.6596V50.6166H196.862L200.523 50.538H200.58V50.588C200.746 51.2532 200.925 51.9541 201.119 52.7337L201.061 52.6836C201.846 52.8731 202.602 53.1666 203.308 53.5562H203.222L205.074 52.3475L205.131 52.3046L205.182 52.3546L207.816 54.8865L207.874 54.9366L207.83 55.001L206.689 56.8892V56.7891C207.109 57.4762 207.433 58.2174 207.651 58.992L207.579 58.9204L209.733 59.3639H209.812V59.4425C209.812 60.6298 209.862 61.8457 209.883 63.0902V63.176H209.797L207.644 63.7053L207.723 63.6266C207.53 64.4087 207.233 65.1615 206.84 65.8653V65.7366L208.06 67.5818L208.103 67.6534L208.046 67.7177L205.498 70.3426L205.44 70.407L205.361 70.3641L203.466 69.2197H203.581C202.891 69.6374 202.147 69.9599 201.37 70.1781L201.449 70.0923C201.291 70.8075 201.14 71.5728 200.997 72.238V72.3309H200.911L197.25 72.3882H197.164V72.3023C196.977 71.5871 196.798 70.829 196.632 70.1567L196.711 70.2353C195.927 70.0402 195.172 69.7445 194.465 69.3556H194.579L192.728 70.5643L192.656 70.6072L192.598 70.55L189.964 68.011L189.906 67.9609L189.95 67.8894C190.352 67.2314 190.739 66.5877 191.098 66.0083V66.1085C190.681 65.418 190.36 64.6746 190.143 63.8984L190.208 63.9628L188.054 63.5122H187.983V63.4407C187.983 62.1604 187.94 60.9445 187.925 59.793V59.7286H187.983L190.136 59.2065L190.079 59.2995C190.272 58.5198 190.569 57.7693 190.962 57.068V57.1395C190.524 56.4744 190.122 55.8521 189.756 55.2871L192.311 52.6765L193.747 53.5348L194.099 53.7636C194.178 53.7207 194.213 53.7493 194.213 53.7565Z" fill="#E0E0E0"/>
<path d="M16.7253 312.004C15.4117 310.888 12.4901 307.333 14.7441 303.206C15.5696 301.697 17.3282 300.946 18.9146 300.281C20.501 299.616 22.1735 299.037 23.4871 297.921C25.9708 295.818 26.6527 292.328 28.2965 289.524C30.1916 286.306 33.7161 283.888 37.4416 284.06C41.7485 284.253 45.2658 287.729 46.8809 291.684C48.496 295.639 48.5534 300.038 48.5821 304.315C48.5821 306.682 48.496 309.322 46.7517 310.945C45.151 312.419 42.7319 312.433 40.5569 312.376L17.2349 311.66" fill="#F5F5F5"/>
<path d="M61.3234 248.12H0L11.0473 313.749C11.2742 315.117 11.8866 316.392 12.813 317.427C13.7395 318.461 14.9419 319.212 16.2802 319.592L16.4955 319.657C16.675 319.7 16.8544 319.764 17.0411 319.793C17.4524 319.877 17.8703 319.924 18.2901 319.936V320L18.5916 319.95H45.9334C46.4369 319.95 46.9392 319.902 47.4336 319.807C49.033 319.559 50.5067 318.795 51.6283 317.632C52.75 316.47 53.4577 314.972 53.6427 313.37L58.9618 268.146L59.2059 266.344L61.3162 248.463L61.3234 248.12ZM49.7593 289.975H43.464L44.0957 270.928H51.3888L49.7593 289.975ZM51.9989 270.928H57.9999L55.7531 289.975H50.3695L51.9989 270.928ZM34.0534 311.095L33.673 294.545H42.7032L42.1504 311.095H34.0534ZM24.2193 294.545H33.0269L33.4074 311.095H25.5114L24.2193 294.545ZM24.9371 311.095H17.522C16.8042 306.625 15.9069 300.818 14.9163 294.545H23.6091L24.9371 311.095ZM23.9034 289.975L22.4175 270.928H32.4814L32.9193 289.975H23.9034ZM33.5653 289.975L33.1274 270.928H43.4856L42.8539 289.975H33.5653ZM33.0198 266.372L32.6106 248.735H44.2321L43.6435 266.358L33.0198 266.372ZM32.4096 266.372H22.0227L20.6732 248.72H31.9717L32.4096 266.372ZM21.3911 266.358H10.4586C10.071 263.926 9.70494 261.616 9.36756 259.542C8.22623 252.39 7.79553 249.729 7.55865 248.72H20.0344L21.3911 266.358ZM21.75 270.928L23.2359 289.975H14.2129C13.9042 288.044 13.5955 286.091 13.2869 284.131L11.198 270.928H21.75ZM13.5812 289.975H7.65915L4.45767 270.928H10.5663C11.4995 276.815 12.5403 283.366 13.5812 289.975ZM14.299 294.545C15.2034 300.267 16.0864 305.917 16.9047 311.095H11.2195L8.42721 294.545H14.299ZM42.7606 311.095L43.3133 294.545H49.3861L47.9504 311.095H42.7606ZM44.2465 266.358L44.8351 248.72H53.291L51.7836 266.358H44.2465ZM6.97722 248.72C7.22128 249.994 8.34108 256.938 9.8485 266.358H3.6896L0.717821 248.72H6.97722ZM53.2982 311.095H48.5534L49.989 294.545H55.2578L53.2982 311.095ZM58.567 266.358H52.3937L53.9083 248.72H60.6415L58.567 266.358Z" fill="#E0E0E0"/>
<path d="M311.032 319.278C311.032 319.385 245.308 319.464 164.244 319.464C83.1809 319.464 17.4429 319.385 17.4429 319.278C17.4429 319.17 83.1522 319.092 164.244 319.092C245.337 319.092 311.032 319.177 311.032 319.278Z" fill="#263238"/>
<path d="M248.502 156.449C248.502 156.449 256.98 146.729 260.181 137.002C263.383 127.275 261.861 128.419 261.861 128.419C261.861 128.419 257.554 137.86 254.267 142.423C250.979 146.987 245.143 153.681 245.143 153.681L248.502 156.449Z" fill="#455A64"/>
<path d="M246.786 129.907C246.844 129.808 246.934 129.733 247.042 129.693C247.149 129.653 247.267 129.651 247.376 129.689C247.484 129.726 247.576 129.799 247.636 129.896C247.696 129.993 247.721 130.108 247.705 130.222C247.188 133.64 246.069 141.665 246.112 146.851C246.169 153.602 246.112 156.213 246.112 156.213H242.58C242.58 156.213 243.212 142.252 244.016 137.996C244.537 135.179 245.471 132.454 246.786 129.907Z" fill="#455A64"/>
<path d="M244.892 155.083C243.411 151.744 242.431 148.206 241.984 144.583C241.697 142.094 242.214 138.733 242.982 134.255C243.281 132.603 243.432 130.928 243.434 129.249C243.43 129.064 243.365 128.885 243.249 128.74C243.133 128.595 242.973 128.493 242.792 128.448C242.612 128.403 242.422 128.419 242.251 128.492C242.08 128.566 241.939 128.694 241.848 128.855C240.994 130.425 240.334 132.092 239.881 133.819C239.027 138.246 238.058 140.456 238.797 144.662C239.537 148.867 242.272 155.326 242.272 155.326L244.892 155.083Z" fill="#455A64"/>
<path d="M241.712 155.362C241.712 155.362 232.38 135.428 231.756 132.474C231.131 129.521 228.92 122.697 228.662 123.083C228.403 123.47 228.016 127.074 229.695 131.187C231.375 135.3 238.532 155.97 238.532 155.97H241.712" fill="#455A64"/>
<path d="M245.911 154.475C245.911 154.475 246.004 154.418 246.169 154.296C246.334 154.174 246.586 153.996 246.887 153.745C247.756 153.053 248.59 152.318 249.385 151.542C251.999 148.971 254.263 146.068 256.118 142.91C257.983 139.753 259.536 136.424 260.755 132.968C261.229 131.645 261.567 130.565 261.789 129.807C261.904 129.435 261.983 129.141 262.033 128.941C262.068 128.842 262.092 128.739 262.105 128.634C262.105 128.634 262.062 128.734 261.997 128.927L261.717 129.785C261.473 130.5 261.107 131.609 260.626 132.925C259.38 136.356 257.823 139.667 255.975 142.817C254.122 145.966 251.876 148.869 249.292 151.457C248.301 152.444 247.447 153.195 246.844 153.702L246.126 154.275C246.049 154.335 245.977 154.402 245.911 154.475Z" fill="#263238"/>
<path d="M244.892 144.912C244.937 144.72 244.966 144.523 244.978 144.326C245.021 143.911 245.078 143.375 245.143 142.724C245.294 141.379 245.523 139.52 245.861 137.474C246.198 135.428 246.578 133.59 246.844 132.267L247.181 130.694C247.233 130.504 247.267 130.31 247.282 130.114C247.212 130.299 247.152 130.488 247.103 130.679C247.002 131.044 246.866 131.573 246.701 132.238C246.385 133.555 245.983 135.393 245.667 137.445C245.351 139.498 245.128 141.358 245.014 142.709C244.956 143.389 244.92 143.94 244.906 144.319C244.881 144.516 244.876 144.714 244.892 144.912Z" fill="#263238"/>
<path d="M242.709 128.734C242.666 128.814 242.63 128.898 242.602 128.984L242.322 129.699C242.2 130.021 242.056 130.415 241.92 130.887C241.783 131.359 241.604 131.881 241.468 132.482C241.396 132.782 241.317 133.097 241.238 133.419C241.159 133.74 241.109 134.091 241.037 134.449C240.879 135.164 240.786 135.922 240.678 136.723C240.473 138.477 240.399 140.244 240.456 142.009C240.526 143.775 240.722 145.534 241.044 147.273C241.216 148.066 241.367 148.825 241.568 149.518C241.669 149.869 241.748 150.234 241.848 150.527L242.142 151.45C242.322 152.036 242.537 152.551 242.709 153.009C242.882 153.466 243.047 153.853 243.198 154.16L243.528 154.875C243.563 154.96 243.606 155.042 243.657 155.119C243.657 155.119 243.657 155.026 243.564 154.854C243.47 154.682 243.391 154.425 243.262 154.139C243.133 153.853 242.975 153.424 242.817 152.973C242.659 152.522 242.444 152 242.279 151.414L241.992 150.491C241.898 150.176 241.819 149.833 241.726 149.483C241.532 148.767 241.389 148.052 241.224 147.244C240.916 145.516 240.721 143.769 240.642 142.016C240.592 140.261 240.661 138.504 240.85 136.759C240.958 135.958 241.044 135.192 241.188 134.491C241.259 134.134 241.31 133.776 241.382 133.469C241.453 133.161 241.532 132.825 241.597 132.532C241.726 131.931 241.891 131.402 242.02 130.93C242.15 130.458 242.279 130.064 242.386 129.735L242.631 128.984C242.667 128.904 242.693 128.82 242.709 128.734Z" fill="#263238"/>
<path d="M228.769 123.484C228.769 123.484 228.769 123.484 228.769 123.577V123.834C228.813 124.063 228.863 124.399 228.956 124.829C229.136 125.687 229.437 126.917 229.904 128.405C230.37 129.892 231.002 131.652 231.756 133.583C232.509 135.514 233.378 137.617 234.203 139.856C235.029 142.094 235.689 144.269 236.299 146.25C236.91 148.231 237.469 150.005 238.022 151.478C238.438 152.638 238.917 153.775 239.458 154.882C239.644 155.276 239.817 155.598 239.932 155.777L240.061 156.005C240.075 156.031 240.092 156.055 240.111 156.077C240.102 156.047 240.09 156.018 240.075 155.991L239.967 155.755C239.867 155.548 239.709 155.247 239.53 154.854C238.992 153.737 238.513 152.594 238.094 151.428C237.556 149.955 237.003 148.181 236.407 146.2C235.811 144.218 235.165 142.03 234.325 139.763C233.486 137.495 232.617 135.421 231.863 133.497C231.11 131.573 230.428 129.828 229.968 128.34C229.509 126.853 229.171 125.623 228.963 124.764C228.863 124.342 228.798 124.006 228.748 123.784L228.683 123.527L228.769 123.484Z" fill="#263238"/>
<path d="M257.475 119.085C257.604 118.964 257.77 118.889 257.946 118.871C258.122 118.854 258.299 118.894 258.45 118.987C258.601 119.08 258.716 119.22 258.779 119.386C258.841 119.551 258.847 119.732 258.796 119.901C258.472 120.924 258.081 121.925 257.626 122.898C256.341 125.608 252.601 135.328 250.821 140.671C249.041 146.014 246.586 155.97 246.586 155.97L242.824 155.362C242.824 155.362 246.263 138.997 249.622 133.097C252.321 128.355 255.02 121.524 257.475 119.085Z" fill="#455A64"/>
<path d="M249.794 144.011C249.713 144.151 249.648 144.3 249.601 144.455C249.493 144.748 249.342 145.17 249.17 145.713C248.825 146.779 248.402 148.274 247.971 149.933C247.54 151.593 247.189 153.094 246.945 154.189C246.83 154.711 246.736 155.14 246.665 155.491C246.62 155.647 246.594 155.808 246.586 155.97C246.654 155.821 246.704 155.665 246.736 155.505C246.83 155.169 246.945 154.732 247.081 154.225L248.165 149.983C248.588 148.324 248.99 146.829 249.306 145.756C249.45 145.248 249.579 144.819 249.672 144.483C249.731 144.331 249.772 144.173 249.794 144.011Z" fill="#263238"/>
<path d="M244.698 155.669V155.569L244.741 155.276C244.777 155.011 244.813 154.632 244.892 154.139C245.028 153.152 245.279 151.736 245.681 150.012C246.161 147.987 246.748 145.988 247.44 144.025C248.208 141.808 249.177 139.412 250.275 136.93C252.486 131.974 254.69 127.582 256.14 124.328C256.858 122.712 257.446 121.389 257.82 120.466C258.006 120.001 258.143 119.643 258.243 119.4C258.286 119.286 258.315 119.193 258.344 119.121C258.372 119.05 258.38 119.021 258.344 119.021L258.301 119.114C258.265 119.186 258.229 119.271 258.179 119.386C258.064 119.636 257.913 119.987 257.719 120.43C257.324 121.346 256.736 122.662 255.989 124.271C254.503 127.504 252.278 131.888 250.06 136.852C248.962 139.334 248 141.737 247.239 143.968C246.55 145.936 245.975 147.942 245.516 149.976C245.207 151.348 244.968 152.735 244.798 154.132C244.734 154.618 244.712 155.011 244.684 155.269V155.562C244.688 155.634 244.693 155.669 244.698 155.669Z" fill="#263238"/>
<path d="M242.824 155.362C242.885 155.156 242.928 154.945 242.954 154.732C243.025 154.296 243.126 153.717 243.248 153.016C243.506 151.585 243.901 149.561 244.468 147.387C245.035 145.213 245.667 143.274 246.155 141.887C246.392 141.215 246.593 140.664 246.744 140.242C246.825 140.045 246.889 139.841 246.938 139.634C246.835 139.82 246.746 140.014 246.672 140.213C246.507 140.592 246.277 141.143 246.019 141.837C245.344 143.64 244.762 145.475 244.274 147.337C243.707 149.483 243.334 151.528 243.104 152.987C242.997 153.702 242.918 154.31 242.875 154.725C242.842 154.936 242.825 155.149 242.824 155.362Z" fill="#263238"/>
<path d="M235.115 172.635H249.78V154.825H235.115V172.635Z" fill="#00566D"/>
<g opacity="0.3">
<path d="M235.115 172.635H249.78V154.825H235.115V172.635Z" fill="black"/>
</g>
<path d="M239.788 172.635H252.802V154.825H239.788V172.635Z" fill="#00566D"/>
<path d="M117.977 8.15514L90.7476 16.84L96.6234 35.1296L123.853 26.4448L117.977 8.15514Z" fill="#00566D"/>
<path d="M118.139 8.33252C118.089 8.44735 118.029 8.55747 117.96 8.66152C117.823 8.8904 117.644 9.19079 117.414 9.56271L115.368 12.8671L108.513 23.7314L108.456 23.8172H108.355L108.118 23.7242L95.9154 19.0609L92.2329 17.6305L91.2352 17.2299C91.1158 17.1879 91.0005 17.1352 90.8906 17.0726C91.0134 17.0968 91.1336 17.1327 91.2495 17.1799L92.2688 17.5375L95.98 18.9036L108.183 23.5025L108.427 23.5883L108.269 23.6455L115.196 12.817C116.079 11.4581 116.797 10.3495 117.314 9.56271L117.895 8.68298C117.966 8.55902 118.047 8.44171 118.139 8.33252Z" fill="#263238"/>
<path d="M96.7622 35.3108C96.6976 35.3108 97.9394 32.1209 99.533 28.2515C101.127 24.3821 102.483 21.2637 102.548 21.2923C102.612 21.3209 101.378 24.4822 99.777 28.3516C98.1763 32.221 96.8483 35.3394 96.7622 35.3108Z" fill="#263238"/>
<path d="M111.549 18.174C111.592 18.1168 114.421 19.9621 117.852 22.2937C121.283 24.6254 124.054 26.5851 124.011 26.5851C123.968 26.5851 121.139 24.8042 117.708 22.4725C114.277 20.1409 111.506 18.2384 111.549 18.174Z" fill="#263238"/>
<path d="M238.288 47.8059L218.024 39.2732C217.361 38.9839 216.84 38.4469 216.571 37.7779C216.303 37.109 216.309 36.3617 216.588 35.6971L228.475 7.74599C228.764 7.08489 229.303 6.56394 229.975 6.29615C230.647 6.02835 231.397 6.03532 232.064 6.31554L244.92 11.737L250.519 26.156L241.905 46.4184C241.607 47.0776 241.06 47.5931 240.383 47.8529C239.705 48.1126 238.953 48.0958 238.288 47.8059Z" fill="#00566D"/>
<path d="M244.913 11.6654L241.568 19.5329C241.436 19.8413 241.366 20.1728 241.362 20.5082C241.359 20.8437 241.422 21.1765 241.548 21.4875C241.674 21.7985 241.861 22.0817 242.097 22.3207C242.333 22.5597 242.615 22.7498 242.925 22.8802L250.512 26.0844L244.913 11.6654Z" fill="#00566D"/>
<g opacity="0.2">
<path d="M241.374 20.2695C241.131 20.8678 241.098 21.5304 241.28 22.1498C241.463 22.7692 241.85 23.3089 242.379 23.6812C242.45 23.74 242.525 23.7949 242.602 23.8457C243.521 24.4393 249.55 28.3516 249.615 28.2014L250.512 26.0557L242.925 22.8515C242.925 22.8515 241.044 22.0147 241.374 20.2695Z" fill="black"/>
</g>
<g opacity="0.3">
<path d="M244.913 11.6654L241.568 19.5329C241.436 19.8413 241.366 20.1728 241.362 20.5082C241.359 20.8437 241.422 21.1765 241.548 21.4875C241.674 21.7985 241.861 22.0817 242.097 22.3207C242.333 22.5597 242.615 22.7498 242.925 22.8802L250.512 26.0844L244.913 11.6654Z" fill="white"/>
</g>
<path d="M240.003 18.5316C238.37 18.0579 236.776 17.4576 235.237 16.7364C233.646 16.1381 232.103 15.4208 230.621 14.5907C232.258 15.0599 233.855 15.6602 235.395 16.3859C236.985 16.9797 238.526 17.6971 240.003 18.5316Z" fill="#FAFAFA"/>
<path d="M244.166 25.4979C244.123 25.598 240.635 24.2248 236.371 22.4224C232.107 20.62 228.69 19.0894 228.733 18.9821C228.776 18.8749 232.265 20.2624 236.529 22.0576C240.793 23.8528 244.21 25.3977 244.166 25.4979Z" fill="#FAFAFA"/>
<path d="M243.98 29.8036C243.937 29.9037 240.133 28.3731 235.488 26.4349C230.844 24.4966 227.111 22.823 227.154 22.7014C227.197 22.5798 230.995 24.1318 235.646 26.0701C240.298 28.0084 244.023 29.6963 243.98 29.8036Z" fill="#FAFAFA"/>
<path d="M242.48 33.3082C242.437 33.4083 238.639 31.8777 233.995 29.9394C229.351 28.0012 225.618 26.3061 225.654 26.2059C225.69 26.1058 229.502 27.6364 234.146 29.5747C238.79 31.5129 242.53 33.2009 242.48 33.3082Z" fill="#FAFAFA"/>
<path d="M241.001 36.8056C240.958 36.9129 237.154 35.3752 232.509 33.4441C227.865 31.513 224.132 29.8107 224.175 29.7106C224.218 29.6104 228.016 31.141 232.667 33.0793C237.319 35.0176 241.044 36.7055 241.001 36.8056Z" fill="#FAFAFA"/>
<path d="M239.508 40.3103C239.465 40.4176 235.66 38.8798 231.016 36.9487C226.372 35.0176 222.639 33.3154 222.682 33.2152C222.725 33.1151 226.53 34.6457 231.174 36.5768C235.818 38.5079 239.551 40.2101 239.508 40.3103Z" fill="#FAFAFA"/>
<path d="M170.138 53.7352C184.945 53.7352 196.949 41.7751 196.949 27.0215C196.949 12.2679 184.945 0.307739 170.138 0.307739C155.331 0.307739 143.327 12.2679 143.327 27.0215C143.327 41.7751 155.331 53.7352 170.138 53.7352Z" fill="white"/>
<path d="M196.948 27.0214C196.948 27.0214 196.948 26.8784 196.905 26.5923C196.862 26.3062 196.855 25.8771 196.819 25.3192C196.819 25.0402 196.783 24.7327 196.762 24.3894C196.74 24.0461 196.654 23.6742 196.597 23.2736C196.476 22.3436 196.289 21.4233 196.037 20.52C195.411 18.0216 194.409 15.6319 193.065 13.4321C191.118 10.2005 188.507 7.4163 185.403 5.26267C182.299 3.10904 178.772 1.63483 175.055 0.937069C173.943 0.731102 172.818 0.602052 171.688 0.550845C171.114 0.550845 170.533 0.472169 169.951 0.479321L168.185 0.572301C167.891 0.572301 167.59 0.572303 167.295 0.629521L166.405 0.765413C165.817 0.865545 165.214 0.937068 164.618 1.05866C162.174 1.60558 159.812 2.46628 157.59 3.61917C157.03 3.91957 156.492 4.27718 155.932 4.60618C155.659 4.77784 155.372 4.92804 155.107 5.12115L154.324 5.70764C152.151 7.28028 150.25 9.19609 148.697 11.3794L148.086 12.1948L147.548 13.0673L147.01 13.9113C146.82 14.1988 146.652 14.5 146.507 14.8125C146.213 15.4347 145.911 16.057 145.603 16.6864L144.885 18.6461C144.009 21.3538 143.544 24.1768 143.507 27.0214C143.544 29.8637 144.009 32.6844 144.885 35.3896C145.122 36.0476 145.366 36.7056 145.603 37.3565C145.84 38.0073 146.206 38.6081 146.507 39.2232C146.65 39.5388 146.818 39.8425 147.01 40.1315L147.548 41.0113L148.079 41.8839L148.697 42.6992C149.493 43.7831 150.363 44.8108 151.302 45.7747C152.252 46.6938 153.261 47.5492 154.324 48.3352L155.107 48.9217C155.372 49.1148 155.659 49.265 155.932 49.4367C156.492 49.7657 157.03 50.1519 157.59 50.4237C159.812 51.5766 162.174 52.4373 164.618 52.9842C165.214 53.1129 165.817 53.1773 166.412 53.2774L167.295 53.4133C167.597 53.4133 167.891 53.4133 168.185 53.4705L169.98 53.5778C170.561 53.5778 171.143 53.5278 171.717 53.5135C172.847 53.4599 173.972 53.3284 175.084 53.1201C178.802 52.4249 182.33 50.9518 185.434 48.7979C188.539 46.644 191.149 43.8584 193.094 40.625C194.426 38.428 195.418 36.0433 196.037 33.5514C196.289 32.6481 196.476 31.7279 196.597 30.7978C196.654 30.3973 196.726 30.0254 196.762 29.6821C196.798 29.3388 196.805 29.0312 196.819 28.7523C196.857 28.1992 196.886 27.7772 196.905 27.4863C196.905 27.2002 196.948 27.05 196.948 27.05C196.948 27.05 196.948 27.2002 196.948 27.4863C196.948 27.7724 196.948 28.2015 196.905 28.7523C196.905 29.0384 196.905 29.3459 196.862 29.6964C196.819 30.0468 196.769 30.4116 196.712 30.8121C196.601 31.7368 196.423 32.6523 196.18 33.5514C195.572 36.0703 194.582 38.4821 193.244 40.7037C191.3 43.9816 188.677 46.8096 185.551 48.9997C182.424 51.1898 178.866 52.6919 175.112 53.4062C173.989 53.6165 172.852 53.7503 171.71 53.8067C171.128 53.8067 170.54 53.8854 169.951 53.8782L168.164 53.7924C167.862 53.7924 167.561 53.7924 167.259 53.7352L166.391 53.5778C165.788 53.4777 165.178 53.4133 164.575 53.2846C163.356 53.0186 162.157 52.6697 160.986 52.2403C159.777 51.8107 158.6 51.2993 157.461 50.7098C156.894 50.4022 156.341 50.0446 155.781 49.7084C155.501 49.5296 155.207 49.3794 154.942 49.1863L154.152 48.5927C153.075 47.7972 152.051 46.9323 151.087 46.0036C150.134 45.0254 149.249 43.9835 148.438 42.8852L147.814 42.0627L147.268 41.1758L146.73 40.2817C146.535 39.9911 146.364 39.6849 146.22 39.3662C145.919 38.7368 145.61 38.1075 145.308 37.4709L144.591 35.4754C143.706 32.7326 143.236 29.8736 143.198 26.9928C143.22 24.1216 143.673 21.2697 144.54 18.5317L145.258 16.5433L146.177 14.6408C146.32 14.3231 146.488 14.017 146.679 13.7253L147.225 12.8385L147.763 11.9516L148.388 11.1219C149.2 10.0273 150.085 8.98791 151.037 8.01067C152.001 7.08192 153.024 6.21703 154.102 5.42154L154.891 4.82791C155.157 4.6348 155.451 4.4846 155.731 4.30579C156.291 3.97679 156.844 3.59056 157.411 3.31162C159.663 2.14883 162.056 1.28098 164.532 0.729652C165.135 0.608064 165.745 0.536541 166.348 0.436409L167.245 0.300514C167.546 0.300514 167.848 0.300515 168.149 0.243297L169.937 0.157471C170.525 0.157471 171.107 0.207536 171.688 0.228992C172.832 0.288489 173.971 0.422283 175.098 0.629521C178.852 1.34381 182.41 2.84591 185.536 5.03602C188.663 7.22612 191.285 10.0541 193.23 13.332C194.568 15.5536 195.558 17.9654 196.166 20.4842C196.408 21.3953 196.584 22.3228 196.69 23.2593C196.747 23.667 196.812 24.0389 196.841 24.3822L196.884 25.3192C196.884 25.8699 196.92 26.2919 196.927 26.5923C196.934 26.8927 196.948 27.0214 196.948 27.0214Z" fill="#263238"/>
<path d="M182.85 26.2702C182.5 26.3988 182.14 26.5016 181.774 26.5778L178.78 27.293C176.247 27.8795 172.729 28.6734 168.796 29.5317L168.573 29.5817V28.5447C168.573 24.3606 168.573 20.5699 168.623 17.8162C168.623 16.5002 168.673 15.4059 168.688 14.5691C168.677 14.172 168.701 13.7748 168.76 13.3818C168.814 13.7752 168.838 14.1721 168.831 14.5691C168.831 15.4059 168.867 16.5002 168.889 17.8162C168.889 20.5627 168.946 24.3534 168.946 28.5447V29.3243L168.717 29.1383C172.65 28.2872 176.175 27.5362 178.723 26.9926L181.738 26.399C182.104 26.3218 182.476 26.2787 182.85 26.2702Z" fill="#263238"/>
<path d="M198.865 38.0358C198.891 37.8867 198.932 37.7405 198.987 37.5995C199.066 37.3206 199.231 36.8843 199.375 36.3836C199.836 34.8831 200.187 33.3508 200.423 31.799C201.243 26.6717 200.752 21.421 198.996 16.5328C197.239 11.6445 194.273 7.27678 190.373 3.83362C189.204 2.79214 187.962 1.83602 186.655 0.97271C186.195 0.650858 185.815 0.436289 185.578 0.257482C185.447 0.181973 185.322 0.0958563 185.205 0C185.35 0.0432732 185.488 0.108392 185.614 0.193112C185.865 0.336157 186.26 0.529267 186.734 0.836815C188.083 1.66382 189.36 2.60164 190.553 3.64051C194.536 7.07457 197.56 11.4769 199.331 16.4198C201.102 21.3626 201.56 26.6779 200.66 31.8491C200.405 33.3987 200.023 34.9248 199.518 36.4122C199.346 36.9415 199.159 37.342 199.059 37.6138C199.011 37.7614 198.946 37.903 198.865 38.0358Z" fill="#263238"/>
<path d="M204.005 24.8899C203.947 24.8899 203.911 23.8243 203.696 22.122C203.408 19.9086 202.904 17.7286 202.189 15.6134C201.467 13.5072 200.536 11.4778 199.411 9.55546C198.535 8.07494 197.903 7.21667 197.975 7.18091C198.168 7.34203 198.338 7.52989 198.478 7.73878C198.772 8.12501 199.195 8.69004 199.655 9.41242C200.876 11.3144 201.864 13.3554 202.598 15.4919C203.337 17.628 203.819 19.844 204.033 22.0934C204.112 22.9517 204.134 23.6526 204.134 24.139C204.131 24.3945 204.087 24.6479 204.005 24.8899Z" fill="#263238"/>
<path d="M143.37 11.5509C143.328 11.6936 143.267 11.8305 143.191 11.9586C143.062 12.2232 142.839 12.5951 142.609 13.1029C139.906 18.4538 138.816 24.4699 139.469 30.4249C140.123 36.3798 142.492 42.019 146.292 46.6614C147.281 47.8801 148.356 49.0274 149.508 50.0945C149.91 50.4807 150.226 50.7525 150.462 50.9528C150.578 51.0496 150.686 51.1548 150.785 51.2675C150.651 51.1975 150.525 51.111 150.412 51.01C150.183 50.8312 149.831 50.5737 149.414 50.2018C148.215 49.1693 147.104 48.0402 146.091 46.8259C142.703 42.8056 140.418 37.9798 139.459 32.8183C138.499 27.6568 138.897 22.3356 140.614 17.3729C141.12 15.8779 141.752 14.4281 142.502 13.0386C142.753 12.5379 142.997 12.1731 143.141 11.9228C143.207 11.7927 143.284 11.6683 143.37 11.5509Z" fill="#263238"/>
<path d="M136.199 23.7169C136.264 23.7169 136.127 24.7826 136.07 26.4992C135.994 28.7283 136.145 30.9593 136.522 33.1579C136.907 35.3587 137.513 37.5153 138.331 39.595C138.956 41.1899 139.444 42.1412 139.386 42.1698C139.225 41.9762 139.09 41.7621 138.984 41.5332C138.748 41.1113 138.432 40.489 138.087 39.6951C137.186 37.6341 136.535 35.473 136.149 33.2581C135.768 31.0336 135.652 28.7721 135.804 26.5206C135.869 25.6552 135.955 24.9614 136.034 24.4822C136.054 24.2209 136.11 23.9634 136.199 23.7169Z" fill="#263238"/>
<path d="M192.333 31.4058C191.321 31.1983 190.502 31.0194 190.502 31.0122C190.502 31.005 191.328 31.1625 192.34 31.37C193.352 31.5775 194.171 31.7493 194.163 31.7564C194.156 31.7636 193.338 31.6419 192.333 31.4058Z" fill="#263238"/>
<path d="M189.734 38.1645C188.844 37.6424 188.126 37.2133 188.126 37.2061C188.126 37.199 188.844 37.6138 189.749 38.1359C190.653 38.6581 191.357 39.0872 191.349 39.0943C191.342 39.1015 190.617 38.6867 189.734 38.1645Z" fill="#263238"/>
<path d="M185.054 43.6861C184.379 42.8993 183.841 42.2556 183.848 42.2556C183.855 42.2556 184.408 42.8779 185.076 43.6861C185.743 44.4943 186.289 45.1165 186.274 45.1165C186.26 45.1165 185.772 44.4657 185.054 43.6861Z" fill="#263238"/>
<path d="M178.874 47.4052C178.493 46.4468 178.192 45.6672 178.199 45.6672C178.206 45.6672 178.522 46.4325 178.917 47.3909C179.312 48.3493 179.599 49.1218 179.584 49.1289C179.57 49.1361 179.254 48.3565 178.874 47.4052Z" fill="#263238"/>
<path d="M171.796 48.9144C171.753 47.8845 171.724 47.0548 171.732 47.0548C171.739 47.0548 171.789 47.8845 171.832 48.9144C171.875 49.9443 171.91 50.774 171.903 50.774C171.896 50.774 171.846 49.9443 171.796 48.9144Z" fill="#263238"/>
<path d="M164.611 48.049C164.898 47.062 165.135 46.2681 165.149 46.2681C165.163 46.2681 164.934 47.0763 164.647 48.0633C164.359 49.0503 164.115 49.8442 164.101 49.8442C164.087 49.8442 164.316 49.036 164.611 48.049Z" fill="#263238"/>
<path d="M158.086 44.9163C158.681 44.0723 159.169 43.4 159.184 43.4072C159.198 43.4143 158.71 44.1224 158.114 44.9377C157.518 45.7531 157.059 46.4254 157.059 46.4254C157.059 46.4254 157.49 45.7531 158.086 44.9163Z" fill="#263238"/>
<path d="M152.953 39.8383C153.786 39.2303 154.468 38.7511 154.475 38.7583C154.482 38.7654 153.807 39.2589 152.968 39.8669C152.128 40.4748 151.453 40.9469 151.446 40.9397C151.439 40.9326 152.113 40.439 152.953 39.8383Z" fill="#263238"/>
<path d="M149.737 33.3727C150.728 33.0722 151.532 32.836 151.532 32.8432C151.532 32.8503 150.735 33.108 149.745 33.4085C148.754 33.7091 147.957 33.9381 147.957 33.9309C147.957 33.9238 148.754 33.6733 149.737 33.3727Z" fill="#263238"/>
<path d="M148.811 26.2203C149.845 26.2203 150.678 26.2919 150.678 26.3062C150.678 26.3205 149.838 26.3062 148.811 26.2561C147.785 26.206 146.938 26.1774 146.945 26.1702C146.952 26.1631 147.778 26.1774 148.811 26.2203Z" fill="#263238"/>
<path d="M150.261 19.1469C151.231 19.5191 152.006 19.8196 152.006 19.8626C152.006 19.9055 151.216 19.5763 150.247 19.2114C149.278 18.8464 148.51 18.5387 148.51 18.5315C148.51 18.5244 149.3 18.782 150.261 19.1469Z" fill="#263238"/>
<path d="M153.944 12.9314C154.734 13.5966 155.38 14.1402 155.38 14.1473C155.38 14.1545 154.726 13.6252 153.944 12.96C153.162 12.2949 152.508 11.7584 152.508 11.7513C152.508 11.7441 153.147 12.2734 153.944 12.9314Z" fill="#263238"/>
<path d="M159.442 8.25375C159.974 9.13348 160.404 9.84871 160.397 9.85586C160.39 9.86301 159.945 9.14064 159.414 8.26806C158.883 7.39548 158.452 6.6731 158.459 6.66595C158.466 6.65879 158.911 7.37402 159.442 8.25375Z" fill="#263238"/>
<path d="M166.168 5.59309C166.384 6.60156 166.556 7.41692 166.549 7.41692C166.542 7.41692 166.355 6.60871 166.132 5.60024C165.91 4.59177 165.745 3.78357 165.759 3.77641C165.774 3.76926 165.953 4.59177 166.168 5.59309Z" fill="#263238"/>
<path d="M173.397 5.26406C173.275 6.28684 173.167 7.10935 173.16 7.10935C173.153 7.10935 173.239 6.27968 173.368 5.25691C173.497 4.23413 173.598 3.41162 173.605 3.41162C173.612 3.41162 173.526 4.22698 173.397 5.26406Z" fill="#263238"/>
<path d="M180.352 7.28821C179.907 8.21085 179.534 8.96184 179.527 8.95469C179.52 8.94754 179.872 8.19655 180.317 7.26675C180.762 6.33696 181.135 5.59312 181.149 5.60027C181.164 5.60742 180.798 6.37272 180.352 7.28821Z" fill="#263238"/>
<path d="M186.26 11.4508C185.542 12.166 184.939 12.7668 184.932 12.7597C184.925 12.7525 185.514 12.1517 186.239 11.4222C186.964 10.6927 187.559 10.1062 187.567 10.1133C187.574 10.1205 186.992 10.7213 186.26 11.4508Z" fill="#263238"/>
<path d="M190.495 17.2947C189.569 17.7527 188.816 18.1177 188.816 18.1105C188.816 18.1034 189.533 17.7241 190.481 17.2661C191.429 16.8081 192.161 16.4431 192.161 16.4503C192.161 16.4575 191.421 16.8367 190.495 17.2947Z" fill="#263238"/>
<path d="M192.606 24.1963L190.747 24.4181C190.747 24.4181 191.572 24.2893 192.599 24.1605C193.625 24.0317 194.451 23.9243 194.451 23.9315C194.451 23.9386 193.625 24.0603 192.606 24.1963Z" fill="#263238"/>
<path d="M205.871 21.7286C205.473 22.9363 204.959 24.1028 204.335 25.2118L204.292 25.2905L204.148 25.5837L203.969 25.3119C203.247 24.3075 202.626 23.2342 202.117 22.1077C202.945 23.0307 203.681 24.032 204.313 25.0974H203.99L204.034 25.0115C204.538 23.8606 205.153 22.7611 205.871 21.7286Z" fill="#263238"/>
<path d="M218.074 82.1295H133.709C131.727 82.1295 129.826 82.914 128.425 84.3103C127.023 85.7066 126.236 87.6004 126.236 89.575C126.236 91.5497 127.023 93.4435 128.425 94.8398C129.826 96.2361 131.727 97.0206 133.709 97.0206H173.189L182.025 105.41V97.0206H218.074C219.055 97.0206 220.027 96.828 220.934 96.4538C221.84 96.0796 222.664 95.5312 223.358 94.8398C224.052 94.1484 224.602 93.3276 224.978 92.4243C225.353 91.521 225.547 90.5528 225.547 89.575C225.547 88.5973 225.353 87.6291 224.978 86.7258C224.602 85.8224 224.052 85.0016 223.358 84.3103C222.664 83.6189 221.84 83.0704 220.934 82.6963C220.027 82.3221 219.055 82.1295 218.074 82.1295Z" fill="#FAFAFA"/>
<path d="M218.074 82.1295H218.347C218.621 82.1323 218.894 82.1538 219.165 82.1939C220.231 82.3363 221.253 82.7098 222.158 83.2882C223.024 83.8376 223.768 84.5579 224.345 85.4047C224.921 86.2515 225.317 87.2068 225.508 88.2118C225.7 89.2169 225.683 90.2504 225.459 91.2487C225.235 92.247 224.808 93.189 224.204 94.0166C223.388 95.1481 222.276 96.0339 220.988 96.5771C220.298 96.8554 219.574 97.0406 218.835 97.1279C218.067 97.1851 217.306 97.1636 216.516 97.1708H206.352H182.011L182.176 97.0063C182.176 99.6383 182.176 102.485 182.176 105.396V105.789L181.889 105.517L173.045 97.1279L173.167 97.1779H139.616H133.759C131.803 97.1982 129.914 96.4719 128.48 95.148C127.045 93.8241 126.173 92.0032 126.044 90.059C125.914 88.1149 126.537 86.1951 127.783 84.6939C129.03 83.1927 130.806 82.2239 132.747 81.9865C133.68 81.8864 134.577 81.9364 135.481 81.9221H148.618L184.767 81.965L209.173 82.0222L215.798 82.058H217.521C217.909 82.058 218.11 82.058 218.11 82.058H217.521H215.798L209.173 82.0938L184.767 82.1581H148.618H135.481C134.584 82.1581 133.665 82.1581 132.797 82.2225C130.999 82.4452 129.35 83.3306 128.174 84.7044C127.269 85.7629 126.687 87.0582 126.499 88.4363C126.31 89.8144 126.522 91.2175 127.11 92.4789C127.698 93.7403 128.637 94.8071 129.816 95.5526C130.994 96.298 132.363 96.6909 133.759 96.6844H139.616H173.167H173.239L173.289 96.7273L182.125 105.124L181.838 105.246C181.838 102.335 181.838 99.4881 181.838 96.8561V96.6987H181.996H206.337H216.502C217.284 96.6987 218.06 96.6987 218.799 96.6987C219.52 96.6189 220.228 96.4433 220.902 96.1766C222.39 95.5526 223.633 94.4617 224.442 93.0696C225.251 91.6775 225.582 90.0603 225.385 88.4637C225.188 86.8671 224.473 85.3783 223.349 84.2234C222.225 83.0686 220.753 82.3108 219.158 82.0652C218.447 82.1367 218.074 82.1867 218.074 82.1295Z" fill="#263238"/>
<path d="M170.604 94.8391H133.658C132.964 94.84 132.277 94.7045 131.635 94.4403C130.994 94.1761 130.411 93.7884 129.92 93.2994C129.43 92.8104 129.04 92.2297 128.775 91.5906C128.51 90.9515 128.374 90.2666 128.375 89.575C128.379 88.182 128.937 86.8475 129.928 85.8645C130.919 84.8816 132.26 84.3305 133.658 84.3324H170.604C171.298 84.3315 171.985 84.4667 172.626 84.7305C173.267 84.9943 173.849 85.3813 174.34 85.8696C174.83 86.3578 175.22 86.9377 175.485 87.5759C175.751 88.2142 175.888 88.8984 175.888 89.5893C175.887 90.2797 175.749 90.9631 175.483 91.6005C175.217 92.238 174.828 92.817 174.337 93.3044C173.847 93.7919 173.264 94.1784 172.624 94.4417C171.984 94.705 171.297 94.84 170.604 94.8391Z" fill="#00566D"/>
<path d="M173.698 74.4554L172.449 78.2604H171.502L170.662 75.6856L169.793 78.2604H168.853L167.597 74.4554H168.544L169.406 77.1304L170.303 74.4554H171.121L171.997 77.1519L172.88 74.4554H173.698Z" fill="#263238"/>
<path d="M173.906 76.3577C173.884 75.942 173.986 75.5289 174.201 75.1719C174.416 74.8149 174.734 74.5305 175.113 74.3552C175.492 74.18 175.915 74.1221 176.328 74.189C176.74 74.256 177.123 74.4446 177.427 74.7306C177.731 75.0166 177.941 75.3868 178.032 75.7933C178.122 76.1999 178.088 76.6241 177.934 77.0111C177.78 77.3981 177.512 77.7301 177.167 77.9643C176.821 78.1985 176.413 78.324 175.995 78.3246C175.727 78.3402 175.458 78.3009 175.205 78.2091C174.952 78.1172 174.72 77.9748 174.525 77.7906C174.329 77.6064 174.173 77.3842 174.067 77.1378C173.961 76.8914 173.906 76.626 173.906 76.3577ZM177.187 76.3577C177.181 76.1242 177.107 75.8975 176.972 75.7061C176.838 75.5146 176.65 75.3669 176.432 75.2814C176.214 75.1959 175.975 75.1765 175.746 75.2255C175.517 75.2745 175.307 75.3897 175.143 75.5569C174.979 75.724 174.869 75.9355 174.825 76.165C174.781 76.3945 174.807 76.6318 174.897 76.8471C174.988 77.0623 175.141 77.2461 175.336 77.3753C175.532 77.5046 175.761 77.5736 175.995 77.5736C176.153 77.5738 176.309 77.5421 176.454 77.4803C176.599 77.4185 176.73 77.328 176.839 77.2143C176.947 77.1006 177.032 76.966 177.087 76.8187C177.142 76.6715 177.166 76.5146 177.158 76.3577H177.187Z" fill="#263238"/>
<path d="M181.185 78.2604L180.467 77.2019H179.656V78.2604H178.773V74.4554H180.424C181.443 74.4554 182.082 74.9847 182.082 75.8358C182.094 76.0933 182.023 76.3478 181.882 76.5634C181.74 76.7789 181.534 76.9448 181.293 77.0374L182.154 78.2604H181.185ZM180.352 75.1707H179.635V76.501H180.352C180.891 76.501 181.164 76.2507 181.164 75.8358C181.164 75.421 180.891 75.1707 180.352 75.1707Z" fill="#263238"/>
<path d="M184.15 76.7656L183.633 77.2949V78.2604H182.757V74.4554H183.618V76.2292L185.313 74.4554H186.296L184.71 76.1505L186.389 78.2604H185.356L184.15 76.7656Z" fill="#263238"/>
<path d="M208.398 90.9698H207.307L207.041 92.343H206.266L206.546 90.9698H203.445L203.545 90.4191L207.091 86.7786H208.025L204.629 90.2903H206.732L206.977 89.0816H207.694L207.45 90.2903H208.513L208.398 90.9698Z" fill="#263238"/>
<path d="M210.695 87.4723L210.235 88.9957H210.774C212.209 88.9957 212.848 89.5822 212.848 90.4834C212.848 91.6349 211.901 92.4002 210.472 92.4002C210.115 92.421 209.757 92.3682 209.421 92.2452C209.085 92.1221 208.778 91.9314 208.52 91.685L208.943 91.0699C209.15 91.2764 209.398 91.4372 209.672 91.5419C209.945 91.6466 210.237 91.693 210.53 91.6778C211.492 91.6778 212.051 91.2559 212.051 90.5478C212.051 89.9971 211.657 89.6681 210.616 89.6681H209.266L210.135 86.7571H213.279L213.15 87.4723H210.695Z" fill="#263238"/>
<path d="M213.767 88.5524C213.743 88.3323 213.764 88.1097 213.829 87.8979C213.894 87.6861 214.001 87.4895 214.144 87.3199C214.286 87.1503 214.462 87.0111 214.66 86.9107C214.858 86.8104 215.074 86.7508 215.296 86.7357C215.453 86.7294 215.609 86.7572 215.754 86.817C215.899 86.8768 216.03 86.9674 216.136 87.0823C216.243 87.1973 216.323 87.3339 216.371 87.4828C216.419 87.6316 216.435 87.7892 216.416 87.9445C216.44 88.1642 216.42 88.3867 216.356 88.5984C216.293 88.8102 216.186 89.0068 216.044 89.1766C215.902 89.3463 215.727 89.4856 215.529 89.5861C215.331 89.6866 215.115 89.7461 214.894 89.7612C214.737 89.7673 214.58 89.7395 214.435 89.6797C214.289 89.62 214.159 89.5296 214.052 89.4148C213.945 89.3 213.864 89.1635 213.815 89.0146C213.766 88.8658 213.749 88.7081 213.767 88.5524ZM218.72 86.7787H219.359L214.485 92.3431H213.832L218.72 86.7787ZM215.92 87.9874C215.92 87.4581 215.676 87.1863 215.274 87.1863C214.628 87.1863 214.313 87.9016 214.313 88.5095C214.313 89.1174 214.557 89.3106 214.959 89.3106C215.597 89.3392 215.92 88.6239 215.92 87.9874ZM216.803 91.1773C216.779 90.9574 216.799 90.7348 216.863 90.523C216.928 90.3112 217.035 90.1146 217.178 89.9454C217.321 89.7761 217.497 89.6375 217.695 89.5383C217.894 89.439 218.111 89.381 218.332 89.3678C218.489 89.3613 218.645 89.389 218.79 89.4489C218.935 89.5088 219.065 89.5994 219.171 89.7145C219.276 89.8297 219.356 89.9664 219.403 90.1153C219.451 90.2642 219.465 90.4216 219.445 90.5765C219.47 90.7959 219.449 91.0179 219.386 91.2293C219.322 91.4406 219.215 91.6368 219.073 91.806C218.931 91.9752 218.755 92.1138 218.558 92.2135C218.36 92.3132 218.144 92.3719 217.923 92.386C217.765 92.3947 217.608 92.3686 217.461 92.3097C217.314 92.2507 217.183 92.1604 217.075 92.045C216.968 91.9296 216.887 91.7921 216.839 91.6421C216.79 91.4922 216.776 91.3335 216.796 91.1773H216.803ZM218.957 90.6123C218.957 90.0902 218.706 89.8112 218.311 89.8112C217.672 89.8112 217.342 90.5265 217.342 91.1415C217.342 91.7566 217.6 91.9426 217.988 91.9426C218.598 91.9426 218.921 91.2202 218.921 90.6123H218.957Z" fill="#263238"/>
<g opacity="0.3">
<path d="M135.087 84.3181L131.663 94.8391H135.087L138.302 84.3181H135.087Z" fill="white"/>
</g>
<g opacity="0.3">
<path d="M143.542 84.3181L140.118 94.8391H143.542L146.758 84.3181H143.542Z" fill="white"/>
</g>
<g opacity="0.3">
<path d="M151.992 84.3181L148.575 94.8391H151.992L155.215 84.3181H151.992Z" fill="white"/>
</g>
<g opacity="0.3">
<path d="M160.447 84.3181L157.031 94.8391H160.447L163.67 84.3181H160.447Z" fill="white"/>
</g>
<g opacity="0.3">
<path d="M168.903 84.3181L165.479 94.8391H168.903L172.126 84.3181H168.903Z" fill="white"/>
</g>
<path d="M40.7722 233.229C40.7722 233.229 58.9546 241.389 77.8907 241.389C95.4199 241.389 113.976 232.599 113.976 232.599L40.7722 233.229Z" fill="#3A3E47"/>
<path d="M79.8649 233.386H72.3564V311.753H79.8649V233.386Z" fill="#3A3E47"/>
<path d="M109.425 307.155H42.7822V311.746H109.425V307.155Z" fill="#3A3E47"/>
<path d="M50.9365 313.255C50.9393 314.259 50.6431 315.241 50.0853 316.077C49.5275 316.913 48.7332 317.565 47.8031 317.951C46.8729 318.337 45.8488 318.439 44.8604 318.244C43.8721 318.05 42.9639 317.567 42.251 316.858C41.5381 316.149 41.0525 315.244 40.8558 314.26C40.6591 313.275 40.76 312.255 41.1459 311.327C41.5318 310.4 42.1852 309.608 43.0234 309.051C43.8616 308.494 44.8468 308.197 45.8543 308.199C47.2004 308.201 48.4909 308.734 49.4433 309.681C50.3958 310.629 50.9327 311.914 50.9365 313.255Z" fill="#263238"/>
<path d="M80.5539 313.255C80.5539 314.258 80.2555 315.239 79.6962 316.073C79.137 316.907 78.3422 317.557 77.4122 317.94C76.4822 318.324 75.4589 318.425 74.4717 318.229C73.4845 318.033 72.5776 317.55 71.8659 316.841C71.1541 316.132 70.6694 315.228 70.473 314.245C70.2767 313.261 70.3774 312.241 70.7626 311.315C71.1478 310.388 71.8002 309.596 72.6371 309.039C73.474 308.482 74.458 308.184 75.4646 308.184C76.8144 308.184 78.1089 308.719 79.0633 309.67C80.0177 310.621 80.5539 311.911 80.5539 313.255Z" fill="#263238"/>
<path d="M114.858 313.255C114.858 314.258 114.56 315.239 114.001 316.073C113.441 316.907 112.647 317.557 111.717 317.94C110.787 318.324 109.763 318.425 108.776 318.229C107.789 318.033 106.882 317.55 106.17 316.841C105.459 316.132 104.974 315.228 104.777 314.245C104.581 313.261 104.682 312.241 105.067 311.315C105.452 310.388 106.105 309.596 106.942 309.039C107.778 308.482 108.762 308.184 109.769 308.184C111.119 308.184 112.413 308.719 113.368 309.67C114.322 310.621 114.858 311.911 114.858 313.255Z" fill="#263238"/>
<path d="M77.8835 261.587H67.6689V265.8H77.8835V261.587Z" fill="#3A3E47"/>
<path d="M69.5281 258.641H65.8098V268.747H69.5281V258.641Z" fill="#3A3E47"/>
<path d="M38.992 113.95H69.485V223.258H30.6653V122.24C30.6691 120.041 31.5478 117.934 33.1088 116.38C34.6697 114.826 36.7854 113.952 38.992 113.95Z" fill="#455A64"/>
<path d="M39.2504 221.599C39.1499 221.599 39.0637 197.882 39.0637 168.629C39.0637 139.376 39.1499 115.652 39.2504 115.652C39.3508 115.652 39.437 139.369 39.437 168.629C39.437 197.889 39.3365 221.599 39.2504 221.599Z" fill="#263238"/>
<path d="M30.6653 223.037H126.717V234.924H36.372C34.8489 234.924 33.3883 234.321 32.3113 233.248C31.2344 232.175 30.6294 230.719 30.6294 229.202V223.008L30.6653 223.037Z" fill="#455A64"/>
<path d="M85.0332 70.7432L80.8698 110.288C80.152 117.018 80.5037 127.039 91.228 127.668C100.56 127.518 103.833 119.014 104.486 112.741C104.802 109.759 105.06 107.277 105.118 106.977C105.118 106.977 115.318 107.084 117.098 97.1923C117.96 92.4146 118.921 82.43 119.69 73.3896C120.087 68.7046 118.699 64.0423 115.802 60.3311C112.904 56.62 108.711 54.1322 104.055 53.3632L103.094 53.1987C92.6493 52.0686 85.8587 60.2866 85.0332 70.7432Z" fill="#FFBE9D"/>
<path d="M105.118 106.955C100.526 106.182 96.253 104.112 92.8071 100.99C92.8071 100.99 94.7524 108.75 104.823 109.509L105.118 106.955Z" fill="#EB996E"/>
<path d="M102.21 75.8785C101.995 76.0573 100.926 75.0273 99.253 74.8271C97.5805 74.6268 96.2525 75.3349 96.0946 75.106C96.0156 74.9987 96.2597 74.6483 96.8124 74.3193C97.5917 73.8937 98.4866 73.7259 99.3678 73.8401C100.24 73.9492 101.055 74.3325 101.694 74.9344C102.189 75.3993 102.318 75.7926 102.21 75.8785Z" fill="#263238"/>
<path d="M102.045 79.705C101.99 80.0547 101.801 80.3692 101.516 80.5815C101.232 80.7939 100.876 80.8874 100.524 80.8422C100.351 80.827 100.183 80.7777 100.03 80.6974C99.8768 80.617 99.7412 80.507 99.631 80.3739C99.5208 80.2408 99.4382 80.0872 99.3881 79.922C99.338 79.7568 99.3214 79.5834 99.3392 79.4117C99.3959 79.0628 99.5862 78.7494 99.87 78.5374C100.154 78.3253 100.509 78.2311 100.861 78.2745C101.033 78.2897 101.201 78.3389 101.354 78.4193C101.508 78.4997 101.643 78.6097 101.754 78.7428C101.864 78.8759 101.946 79.0295 101.996 79.1947C102.047 79.3599 102.063 79.5333 102.045 79.705Z" fill="#263238"/>
<path d="M105.333 87.9087C106.18 87.7925 107.038 87.7805 107.888 87.8729C108.283 87.8729 108.671 87.8729 108.779 87.6297C108.877 87.2311 108.852 86.8123 108.707 86.4281L108.054 83.2811C107.149 78.7967 106.568 75.1419 106.754 75.1061C106.941 75.0703 107.809 78.6822 108.707 83.1524C108.922 84.261 109.123 85.2981 109.317 86.3209C109.484 86.831 109.463 87.3835 109.259 87.8801C109.183 88.0058 109.078 88.1124 108.954 88.1918C108.829 88.2711 108.688 88.3211 108.542 88.3378C108.315 88.3672 108.086 88.3672 107.86 88.3378C107.003 88.2985 106.154 88.1543 105.333 87.9087Z" fill="#263238"/>
<path d="M102.081 69.5353C101.88 69.8931 100.567 69.4852 98.9517 69.4208C97.3366 69.3564 95.9871 69.5854 95.8292 69.2133C95.7646 69.0344 96.0445 68.7195 96.626 68.4404C97.3803 68.0945 98.2094 67.9419 99.0378 67.9967C99.8672 68.0402 100.673 68.2859 101.385 68.7124C101.923 69.0201 102.168 69.3636 102.081 69.5353Z" fill="#263238"/>
<path d="M117.708 74.0913C117.507 74.3775 116.23 73.9196 114.65 73.7263C113.071 73.5331 111.736 73.6118 111.592 73.2827C111.535 73.1252 111.822 72.8819 112.396 72.6887C113.17 72.4634 113.982 72.4048 114.78 72.5169C115.584 72.62 116.359 72.888 117.055 73.3041C117.579 73.6405 117.802 73.9553 117.708 74.0913Z" fill="#263238"/>
<path d="M84.6167 78.1959C84.4588 78.0886 78.1204 75.0489 77.2088 81.8578C76.2972 88.6668 83.3462 88.1733 83.3821 87.9802C83.418 87.7871 84.6167 78.1959 84.6167 78.1959Z" fill="#FFBE9D"/>
<path d="M81.6449 85.1264C81.6449 85.1264 81.5085 85.1908 81.3003 85.2552C80.9995 85.3381 80.6781 85.3022 80.4031 85.155C79.6852 84.7974 79.2617 83.5744 79.3981 82.3442C79.4573 81.7562 79.6487 81.189 79.958 80.6849C80.0501 80.4805 80.1913 80.3018 80.3691 80.1646C80.5468 80.0274 80.7557 79.9359 80.9773 79.8981C81.1178 79.8798 81.2602 79.9113 81.3796 79.9872C81.4991 80.063 81.5879 80.1784 81.6305 80.3129C81.7023 80.5132 81.6305 80.6491 81.6736 80.6634C81.7167 80.6777 81.8387 80.5704 81.8172 80.2772C81.8056 80.1045 81.7317 79.9419 81.609 79.8194C81.4388 79.6517 81.2096 79.5567 80.9701 79.5548C80.682 79.5744 80.4037 79.6668 80.1613 79.8232C79.919 79.9796 79.7205 80.1949 79.5847 80.4488C79.2138 80.9975 78.9845 81.6289 78.9172 82.287C78.7808 83.6674 79.312 85.0478 80.2595 85.4626C80.4358 85.5401 80.6273 85.5772 80.8199 85.571C81.0125 85.5648 81.2012 85.5155 81.3721 85.4268C81.609 85.2909 81.688 85.1407 81.6449 85.1264Z" fill="#EB996E"/>
<path d="M103.273 92.4646C103.366 92.3001 102.06 91.7494 101.227 90.4262C100.887 89.8401 100.624 89.2127 100.444 88.5595C100.294 88.0445 100.172 87.7155 100.093 87.7298C100.014 87.7441 100.007 88.0874 100.093 88.6382C100.178 89.3755 100.423 90.0856 100.811 90.7195C101.205 91.358 101.769 91.8754 102.44 92.2143C102.899 92.4718 103.222 92.5218 103.273 92.4646Z" fill="#263238"/>
<path d="M76.5196 66.2873C78.1777 64.0057 78.7735 61.1591 79.8072 58.5414C80.8409 55.9236 82.5995 53.2773 85.3344 52.5764L85.3918 52.6121C87.854 51.8969 90.7827 52.1329 92.57 53.9568C93.3812 50.445 96.7693 47.9202 100.337 47.3338C103.904 46.7473 109.432 47.7987 112.647 49.4794C115.131 50.7525 117.428 53.0985 120.17 56.4958C121.333 57.924 122.375 59.4454 123.286 61.0447L125.439 70.6359L122.395 75.2777C122.211 75.6024 122.009 75.9175 121.793 76.2218L118.505 86.2994C118.613 83.4814 119.725 73.74 119.833 70.9148C117.721 70.6573 115.683 69.9772 113.841 68.9153C111.999 67.8533 110.392 66.4315 109.116 64.7352C107.738 62.8971 106.725 60.6584 104.759 59.4569C102.232 57.9048 99.0161 58.5628 96.0945 59.2781L96.2238 59.1779C94.702 59.7174 93.2984 60.5429 92.0891 61.6097C92.2012 67.2059 91.1019 72.7605 88.8661 77.8954C88.5287 78.6679 87.6673 80.2414 86.849 80.4774C85.2555 80.928 84.9827 79.3259 84.1357 78.4104C83.5111 77.7381 82.5062 77.5593 81.3936 77.4663C80.844 75.07 80.4366 72.6436 80.1733 70.1996C79.2229 70.3947 78.2401 70.3678 77.302 70.1209L78.3859 68.0897C77.9935 68.3255 77.5557 68.4765 77.101 68.5331C76.8638 68.5628 76.6232 68.5155 76.4151 68.3982C76.2069 68.281 76.0422 68.1001 75.9453 67.8822C75.7659 67.3315 76.175 66.7665 76.5196 66.2873Z" fill="#263238"/>
<path d="M95.6283 55.3873C95.2457 55.6357 94.8811 55.9105 94.5372 56.2098C93.6592 57.0893 93.026 58.1812 92.6996 59.3783C92.45 60.1964 92.2841 61.0375 92.2043 61.8888C92.1181 62.8114 92.1038 63.7984 92.0751 64.8426C92.067 65.9383 91.9903 67.0323 91.8453 68.1184C91.7597 68.6942 91.6326 69.2631 91.4649 69.8206C91.3195 70.4212 91.023 70.975 90.6035 71.4299C90.4135 71.6044 90.1818 71.7275 89.9305 71.7876C89.6792 71.8477 89.4167 71.8428 89.1679 71.7732C88.6844 71.6382 88.26 71.3462 87.9619 70.9435C87.4912 70.1484 87.2433 69.2419 87.2441 68.3186L87.4451 68.3616C87.0654 69.0877 86.5818 69.7551 86.0095 70.3427C85.4658 70.8854 84.733 71.198 83.9637 71.2153C83.6078 71.218 83.2579 71.124 82.9515 70.9435C82.6684 70.762 82.446 70.5006 82.3127 70.1925C82.1891 69.9067 82.1445 69.5931 82.1835 69.2842C82.229 69.0078 82.3684 68.7553 82.5783 68.569L82.6716 68.6763C81.8454 69.477 80.8112 70.0319 79.6855 70.2784C79.6065 70.303 79.5241 70.315 79.4414 70.3141C79.5157 70.2837 79.5926 70.2598 79.6711 70.2426C79.829 70.1925 80.0587 70.1282 80.3459 70.0137C81.176 69.6896 81.9325 69.2032 82.5711 68.5833L82.6716 68.6906C82.4881 68.8845 82.3696 69.1303 82.3323 69.3942C82.295 69.6582 82.3408 69.9271 82.4634 70.1639C82.5857 70.4389 82.7883 70.6707 83.0449 70.8291C83.3226 70.9933 83.6407 71.0775 83.9637 71.0723C84.6814 71.0441 85.3615 70.7449 85.8659 70.2354C86.4113 69.6577 86.8705 69.005 87.2298 68.2972L87.402 67.9896V68.3401C87.4177 69.2249 87.6651 70.0903 88.1199 70.8505C88.3931 71.1972 88.7703 71.4479 89.1966 71.5658C89.4114 71.6282 89.6387 71.634 89.8564 71.5826C90.0741 71.5312 90.2746 71.4244 90.4384 71.2725C90.8251 70.8456 91.0989 70.3294 91.2352 69.7706C91.4028 69.2227 91.53 68.6633 91.6157 68.0969C91.7601 67.0203 91.8392 65.9359 91.8525 64.8498C91.8525 63.8056 91.91 62.8185 92.0033 61.8888C92.0936 61.0243 92.2716 60.1712 92.5345 59.3425C92.884 58.1284 93.5532 57.0295 94.4726 56.1598C94.8113 55.8392 95.2021 55.578 95.6283 55.3873Z" fill="#455A64"/>
<path d="M125.683 67.9394L125.597 67.9966L125.331 68.154C125.189 68.2432 125.04 68.3221 124.886 68.39C124.7 68.4687 124.492 68.576 124.247 68.6546C122.848 69.1336 121.351 69.2613 119.89 69.0266C117.717 68.6814 115.691 67.7177 114.054 66.2515C112.088 64.4421 110.512 62.2517 109.424 59.8144C108.807 58.5413 108.326 57.2467 107.781 56.0452C107.29 54.8756 106.63 53.784 105.821 52.8052C105.1 51.9157 104.164 51.224 103.1 50.7954C102.62 50.6131 102.114 50.5069 101.6 50.4807C101.118 50.4619 100.635 50.5076 100.165 50.6166C98.744 50.9573 97.5054 51.8209 96.6975 53.0341C96.4267 53.485 96.2076 53.9648 96.0443 54.4645C96.0396 54.4313 96.0396 54.3976 96.0443 54.3644C96.0443 54.2786 96.0874 54.1856 96.1161 54.064C96.2307 53.6797 96.3948 53.3119 96.6042 52.9697C96.9382 52.4251 97.363 51.9413 97.8604 51.5392C98.5193 51.0095 99.286 50.6288 100.107 50.4235C101.109 50.1661 102.165 50.2185 103.136 50.5737C104.233 51.0112 105.2 51.7172 105.95 52.6264C106.773 53.6185 107.448 54.7243 107.953 55.9093C108.506 57.1252 108.987 58.4126 109.597 59.6785C110.677 62.0848 112.229 64.2515 114.162 66.0512C115.771 67.5042 117.764 68.4673 119.905 68.8263C121.344 69.0743 122.821 68.9713 124.212 68.5259C125.188 68.2326 125.669 67.8822 125.683 67.9394Z" fill="#455A64"/>
<path d="M117.428 77.8954C117.213 78.0814 116.143 77.0443 114.471 76.8512C112.798 76.658 111.47 77.3518 111.319 77.1229C111.241 77.0157 111.477 76.6724 112.037 76.3362C112.818 75.914 113.712 75.7488 114.593 75.8642C115.466 75.9664 116.282 76.3478 116.918 76.9513C117.407 77.4305 117.536 77.831 117.428 77.8954Z" fill="#263238"/>
<path d="M116.007 80.9996C115.954 81.3501 115.764 81.6657 115.48 81.8784C115.195 82.0911 114.838 82.1839 114.485 82.1368C114.313 82.1216 114.146 82.0724 113.993 81.9919C113.84 81.9114 113.705 81.8013 113.595 81.6681C113.485 81.5349 113.403 81.3812 113.354 81.216C113.305 81.0509 113.289 80.8776 113.308 80.7063C113.363 80.358 113.552 80.0447 113.834 79.8325C114.117 79.6203 114.471 79.5258 114.823 79.5691C114.995 79.5843 115.163 79.6335 115.316 79.7139C115.469 79.7943 115.605 79.9043 115.715 80.0374C115.825 80.1705 115.908 80.3241 115.958 80.4893C116.008 80.6545 116.025 80.8279 116.007 80.9996Z" fill="#263238"/>
<path d="M122.604 59.7788C123.321 60.9875 124.535 62.1462 125.949 62.1462C126.467 62.0921 126.981 61.9989 127.485 61.8673C127.944 62.2106 127.657 63.8699 127.269 64.2919C126.911 64.649 126.522 64.9744 126.107 65.2646C127.657 66.316 129.2 66.0371 131.017 65.5865C130.685 67.0561 129.974 68.4138 128.952 69.5243C127.931 70.6348 126.636 71.4595 125.195 71.9162C124.747 72.0985 124.263 72.1721 123.781 72.1311C123.299 72.09 122.834 71.9355 122.424 71.6802C121.827 71.0681 121.477 70.2585 121.441 69.4058C120.967 66.3293 120.878 63.2062 121.175 60.1078L122.604 59.7788Z" fill="#263238"/>
<path d="M104.062 116.232C104.062 116.232 110.379 118.785 113.975 127.497C116.502 133.619 130.557 152.944 130.557 152.944L167.927 161.212L169.205 173.092L109.432 172.599L101.126 146.243L104.062 116.232Z" fill="#00566D"/>
<path d="M78.8956 105.253L72.2629 108.028C66.1255 110.588 58.2726 116.489 55.6382 122.583C49.3142 137.259 43.586 156.12 41.3894 172.806C39.1714 189.635 43.5859 214.54 43.5859 214.54L99.6765 182.605L96.396 180.323L107.027 122.704L105.046 115.731L106.367 109.83C106.367 109.83 91.4861 103.88 80.647 99.6097L78.8956 105.253Z" fill="#00566D"/>
<g opacity="0.3">
<path d="M73.5408 197.889C73.7466 195.028 73.9524 192.151 74.1582 189.256C73.5003 189.881 72.6393 190.249 71.7319 190.294C73.1352 188.959 74.3803 187.469 75.4431 185.852L72.8876 186.946C73.7889 186.256 74.5245 185.374 75.0411 184.364C73.6701 183.299 71.7391 183.477 70.0163 183.649C61.1513 184.543 52.2072 183.949 43.3062 183.356C42.4147 183.305 41.5451 183.061 40.758 182.641C40.758 182.641 40.5785 180.209 40.9733 179.3C41.3681 178.392 41.9854 178.657 42.9186 178.321C43.866 178.034 44.85 177.884 45.8401 177.877C56.6721 177.305 67.5255 178.192 78.3359 179.086C79.01 179.076 79.6719 179.265 80.2381 179.629C81.121 180.345 81.0421 181.689 80.8913 182.812C80.3362 186.846 79.7859 190.878 79.2403 194.907" fill="black"/>
</g>
<path d="M106.367 120.387C106.366 120.569 106.349 120.751 106.317 120.931L106.087 122.468C105.886 123.799 105.563 125.73 105.139 128.104C104.292 132.861 103.022 139.405 101.55 146.614C100.079 153.824 98.5856 160.34 97.516 165.046C96.9777 167.37 96.5398 169.266 96.224 170.618C96.0732 171.247 95.9512 171.748 95.8579 172.127C95.8245 172.306 95.7715 172.481 95.7 172.649C95.7187 172.469 95.7474 172.289 95.7861 172.112C95.8579 171.726 95.9584 171.218 96.0876 170.589C96.3675 169.223 96.8054 167.327 97.2576 164.989L101.148 146.557C102.656 139.348 103.969 132.811 104.881 128.069C105.319 125.73 105.685 123.82 105.943 122.454C106.065 121.825 106.166 121.317 106.238 120.931C106.262 120.746 106.305 120.563 106.367 120.387Z" fill="#263238"/>
<path d="M55.6382 202.188C55.7386 202.064 55.8517 201.952 55.9756 201.852L56.9805 200.929C57.4112 200.528 57.9567 200.049 58.61 199.498C59.2632 198.948 59.981 198.333 60.828 197.696C62.4862 196.373 64.532 194.892 66.8649 193.34C69.1978 191.788 71.8896 190.215 74.7107 188.699C77.5317 187.182 80.3958 185.923 82.9943 184.858C85.5928 183.792 87.976 182.97 90.0074 182.354C91.0124 182.018 91.9456 181.775 92.7567 181.546C93.5678 181.317 94.2713 181.139 94.8456 181.003L96.1807 180.702C96.332 180.654 96.4888 180.626 96.6473 180.616C96.5023 180.684 96.3508 180.737 96.1951 180.774L94.8815 181.146C94.3144 181.303 93.6181 181.496 92.8141 181.747C92.0102 181.997 91.0914 182.254 90.0864 182.605C88.0765 183.256 85.7077 184.121 83.1235 185.18C80.5394 186.238 77.7471 187.533 74.8901 189.028C72.0332 190.522 69.3988 192.11 67.0515 193.626C64.7043 195.143 62.6585 196.616 60.986 197.918C60.1317 198.54 59.3996 199.155 58.7392 199.67C58.0788 200.185 57.5261 200.657 57.0738 201.036L56.0258 201.902C55.9072 202.011 55.7773 202.106 55.6382 202.188Z" fill="#263238"/>
<path d="M84.4301 181.096C84.4804 181.189 79.0249 184.243 72.2272 187.919C65.4294 191.595 59.9166 194.506 59.8663 194.413C59.8161 194.32 65.2715 191.273 72.0693 187.59C78.867 183.907 84.3799 181.01 84.4301 181.096Z" fill="#263238"/>
<g opacity="0.3">
<path d="M64.7188 136.952C68.2002 151.972 78.8455 165.375 93.0152 171.49C82.8216 160.618 73.3684 149.08 64.7188 136.952Z" fill="black"/>
</g>
<g opacity="0.3">
<path d="M105.477 125.537C106.848 131.888 105.828 139.841 102.605 145.47L101.809 143.825C102.936 139.055 104.551 130.593 105.448 125.537" fill="black"/>
</g>
<path d="M135.295 277.094L128.569 297.249C128.569 297.249 146.88 310.838 145.997 314.679L106.302 303.092L115.483 271.25L135.295 277.094Z" fill="#455A64"/>
<g opacity="0.3">
<path d="M135.295 277.094L128.569 297.249C128.569 297.249 146.88 310.838 145.997 314.679L106.302 303.092L115.483 271.25L135.295 277.094Z" fill="black"/>
</g>
<path d="M116.797 291.956C116.381 291.96 115.981 292.116 115.675 292.397C115.369 292.677 115.177 293.06 115.138 293.472C115.126 293.886 115.274 294.289 115.553 294.597C115.831 294.904 116.217 295.093 116.631 295.125C117.073 295.119 117.496 294.951 117.819 294.652C118.143 294.354 118.344 293.946 118.383 293.508C118.35 293.076 118.149 292.673 117.824 292.385C117.499 292.096 117.074 291.945 116.639 291.963" fill="#E0E0E0"/>
<g opacity="0.6">
<path d="M106.302 303.092L107.35 299.916L145.021 312.211C145.021 312.211 146.565 313.491 145.997 314.679L106.302 303.092Z" fill="white"/>
</g>
<path d="M129.272 297.235C129.208 297.428 128.217 297.235 127.076 297.578C125.935 297.922 125.195 298.58 125.037 298.451C124.879 298.322 125.497 297.292 126.882 296.905C128.268 296.519 129.366 297.07 129.272 297.235Z" fill="#263238"/>
<path d="M132.933 300.167C132.933 300.367 131.986 300.453 131.088 301.075C130.191 301.697 129.746 302.506 129.552 302.441C129.358 302.377 129.552 301.254 130.694 300.496C131.835 299.738 132.983 299.981 132.933 300.167Z" fill="#263238"/>
<path d="M133.838 305.824C133.651 305.824 133.665 304.773 134.469 303.857C135.273 302.942 136.314 302.784 136.343 302.97C136.372 303.156 135.625 303.557 135.001 304.315C134.376 305.073 134.039 305.86 133.838 305.824Z" fill="#263238"/>
<path d="M130.292 292.465C130.163 292.622 129.351 292.092 128.232 291.849C127.112 291.606 126.157 291.699 126.078 291.498C125.999 291.298 127.047 290.854 128.361 291.162C129.674 291.47 130.435 292.35 130.292 292.465Z" fill="#263238"/>
<path d="M146.873 286.091L146.033 307.319C146.033 307.319 167.41 315.294 167.633 319.235L126.272 319.092L126.193 285.962L146.873 286.091Z" fill="#455A64"/>
<path d="M133.249 305.488C132.85 305.606 132.509 305.868 132.292 306.222C132.074 306.575 131.996 306.997 132.072 307.405C132.177 307.806 132.434 308.152 132.788 308.37C133.142 308.589 133.567 308.663 133.974 308.578C134.395 308.451 134.754 308.173 134.981 307.798C135.207 307.423 135.286 306.977 135.202 306.547C135.051 306.14 134.747 305.807 134.354 305.619C133.962 305.431 133.512 305.402 133.098 305.538" fill="#E0E0E0"/>
<g opacity="0.6">
<path d="M126.272 319.092L126.394 315.752L166.01 317.132C166.01 317.132 167.848 317.94 167.633 319.235L126.272 319.092Z" fill="white"/>
</g>
<path d="M146.708 307.112C146.708 307.312 145.689 307.398 144.691 308.041C143.693 308.685 143.162 309.529 142.976 309.472C142.789 309.415 143.098 308.227 144.318 307.469C145.538 306.711 146.751 306.926 146.708 307.112Z" fill="#263238"/>
<path d="M151.037 308.914C151.08 309.107 150.204 309.443 149.515 310.294C148.826 311.145 148.625 312.047 148.424 312.032C148.223 312.018 148.101 310.888 148.976 309.844C149.852 308.799 151.037 308.721 151.037 308.914Z" fill="#263238"/>
<path d="M153.47 314.092C153.283 314.135 153.011 313.127 153.527 312.032C154.044 310.938 154.999 310.495 155.085 310.659C155.171 310.824 154.583 311.417 154.166 312.326C153.75 313.234 153.685 314.078 153.47 314.092Z" fill="#263238"/>
<path d="M146.356 302.248C146.27 302.434 145.344 302.155 144.203 302.248C143.062 302.341 142.172 302.678 142.05 302.506C141.928 302.334 142.767 301.619 144.153 301.547C145.538 301.476 146.457 302.091 146.356 302.248Z" fill="#263238"/>
<path d="M97.3221 182.14C97.3221 182.14 146.902 195.014 153.061 203.532C158.258 210.763 130.966 284.596 130.966 284.596L109.432 282.744L118.72 220.963L63.1682 203.368L71.5595 182.111L97.3221 182.14Z" fill="#263238"/>
<path d="M100.875 193.712C100.875 193.712 151.561 205.978 156.686 214.697C159.076 218.767 157.504 232.127 156.614 238.435C156.011 242.684 147.053 302.134 147.053 302.134H125.138L125.619 234.988L72.9594 224.41C72.9594 224.41 44.6916 226.556 43.5862 214.54L55.3872 198.604L83.2386 184.894L100.875 193.712Z" fill="#263238"/>
<path d="M97.0134 192.167C97.0134 192.167 97.2646 192.225 97.7312 192.361L99.8846 192.954L108.154 195.257C111.743 196.259 116.136 197.482 121.211 198.984C126.286 200.486 132.036 202.302 138.274 204.655C141.399 205.819 144.624 207.144 147.95 208.632L150.462 209.762C151.309 210.174 152.133 210.63 152.932 211.128C153.748 211.638 154.519 212.217 155.236 212.859C155.98 213.511 156.605 214.288 157.081 215.155C158.789 222.894 157.755 231.355 156.485 240.002C155.932 244.358 155.221 248.799 154.554 253.341C153.886 257.883 153.176 262.532 152.465 267.252C151.029 276.7 149.594 286.485 148.072 296.498C147.785 298.393 147.505 300.281 147.218 302.155V302.32H124.965V302.134C125.159 276.686 125.339 253.641 125.482 234.995L125.597 235.131L88.1483 227.543L77.9337 225.454L75.2777 224.903C74.6748 224.775 74.3733 224.696 74.3733 224.696L75.2849 224.861L77.9552 225.376L88.2129 227.378L125.647 234.831H125.762V234.952C125.64 253.598 125.489 276.643 125.324 302.098L125.138 301.912H147.045L146.866 302.069C147.146 300.188 147.433 298.307 147.713 296.412L152.113 267.166C152.831 262.436 153.53 257.799 154.209 253.255C154.884 248.713 155.602 244.272 156.162 239.916C156.458 237.742 156.748 235.596 157.03 233.479C157.332 231.395 157.519 229.296 157.59 227.192C157.662 225.118 157.662 223.075 157.59 221.063C157.547 220.054 157.49 219.06 157.404 218.073C157.395 217.105 157.198 216.148 156.822 215.255C156.366 214.42 155.766 213.672 155.049 213.045C154.349 212.415 153.595 211.848 152.795 211.35C152.008 210.852 151.193 210.398 150.355 209.991L147.857 208.854C144.54 207.373 141.317 206.036 138.202 204.87C131.978 202.503 126.229 200.693 121.168 199.148C116.107 197.603 111.714 196.387 108.132 195.365L99.8775 193.047L97.724 192.418C97.2574 192.253 97.0134 192.167 97.0134 192.167Z" fill="#455A64"/>
<path d="M167.209 161.799C167.532 161.313 171.717 156.499 172.844 156.499C173.971 156.499 175.263 157.786 175.263 157.786C176.017 157.442 176.857 157.33 177.675 157.465C178.644 157.786 183.152 161.634 183.152 163.079V165.489C183.254 166.127 183.254 166.776 183.152 167.413C182.994 168.536 180.281 170.46 180.281 170.46H164.797C164.797 170.46 161.847 168.479 162.213 166.612C162.579 164.746 167.209 161.799 167.209 161.799Z" fill="#FFBE9D"/>
<path d="M175.263 157.786C175.599 157.939 175.921 158.121 176.225 158.33L178.78 159.939C179.076 160.11 179.359 160.301 179.628 160.511C179.912 160.774 180.127 161.104 180.252 161.47C180.35 161.858 180.396 162.257 180.388 162.657L180.453 163.887C180.539 165.568 180.625 167.413 180.719 169.344L180.762 170.217V170.374L180.611 170.41L179.663 170.639H179.62C179.177 170.626 178.751 170.467 178.407 170.188C178.091 169.927 177.825 169.609 177.625 169.251C177.261 168.6 176.988 167.902 176.814 167.177C176.512 165.966 176.335 164.727 176.282 163.48L176.369 163.594L173.662 162.535C173.327 162.418 173.003 162.272 172.693 162.099C173.041 162.17 173.382 162.27 173.713 162.4L176.455 163.351H176.534V163.437C176.617 164.664 176.816 165.88 177.129 167.07C177.305 167.761 177.573 168.424 177.926 169.044C178.081 169.371 178.317 169.652 178.613 169.861C178.908 170.071 179.253 170.2 179.613 170.238H179.57L180.518 170.002L180.374 170.196L180.331 169.316C180.252 167.385 180.166 165.547 180.094 163.859C180.094 163.437 180.094 163.029 180.051 162.628C180.058 162.256 180.022 161.884 179.943 161.52C179.844 161.201 179.664 160.912 179.419 160.683C179.164 160.478 178.898 160.287 178.623 160.111L176.132 158.409C175.825 158.226 175.534 158.018 175.263 157.786Z" fill="#EB996E"/>
<path d="M164.797 169.91C165.138 169.837 165.483 169.791 165.831 169.774L168.652 169.552H168.695C169.744 169.798 170.806 169.989 171.875 170.124C172.492 170.208 173.112 170.258 173.734 170.274C174.036 170.324 174.346 170.306 174.64 170.222C174.934 170.138 175.206 169.99 175.435 169.788C175.628 169.515 175.722 169.184 175.701 168.851C175.701 168.501 175.651 168.136 175.636 167.764C175.595 167.461 175.448 167.182 175.22 166.977C174.993 166.75 174.735 166.557 174.452 166.405C173.428 165.891 172.275 165.687 171.136 165.818C170.727 165.857 170.316 165.797 169.935 165.646C169.555 165.494 169.216 165.254 168.946 164.946C168.609 164.467 168.638 164.116 168.659 164.123C168.754 164.382 168.89 164.623 169.061 164.839C169.33 165.106 169.657 165.31 170.016 165.434C170.375 165.558 170.758 165.599 171.136 165.554C172.325 165.378 173.539 165.568 174.617 166.097C174.93 166.263 175.218 166.473 175.471 166.72C175.77 166.989 175.959 167.358 176.003 167.757C176.003 168.086 176.074 168.472 176.074 168.844C176.094 169.263 175.97 169.677 175.723 170.017C175.472 170.306 175.13 170.5 174.754 170.568C174.415 170.631 174.071 170.653 173.727 170.632C173.067 170.632 172.435 170.546 171.832 170.467C170.751 170.313 169.679 170.095 168.623 169.817H168.666L165.845 169.917C165.497 169.951 165.145 169.949 164.797 169.91Z" fill="#EB996E"/>
<path d="M180.553 169.845C180.912 168.889 181.329 167.955 181.802 167.049C182.167 166.087 182.649 165.174 183.238 164.331C182.991 165.324 182.627 166.284 182.154 167.192C181.788 168.167 181.246 169.066 180.553 169.845Z" fill="#EB996E"/>
<path d="M147.01 173.099L202.777 173.815L220.723 123.649C220.914 123.146 220.906 122.59 220.699 122.094C220.492 121.598 220.102 121.2 219.61 120.981C219.345 120.858 219.057 120.792 218.765 120.786C218.473 120.78 218.182 120.834 217.912 120.946C217.643 121.057 217.399 121.224 217.197 121.434C216.995 121.644 216.839 121.894 216.739 122.168L199.044 169.673L146.959 170.188C146.579 170.188 146.213 170.339 145.944 170.607C145.675 170.876 145.524 171.239 145.524 171.619C145.517 171.815 145.55 172.011 145.622 172.194C145.695 172.376 145.804 172.542 145.943 172.681C146.083 172.82 146.249 172.929 146.433 173.001C146.616 173.073 146.812 173.106 147.01 173.099Z" fill="#263238"/>
<path d="M63.9076 135.829C63.9076 135.829 91.1848 172.778 95.4128 172.778H135.216V157.758L105.118 150.684C105.118 150.684 90.3019 120.144 87.0143 116.232C83.7266 112.319 74.9621 107.048 68.4084 112.942C61.8547 118.835 63.9076 135.829 63.9076 135.829Z" fill="#00566D"/>
<path d="M135.187 159.238L141.712 158.716C141.712 158.716 141.848 156.306 143.277 155.455C144.705 154.604 144.555 152.758 145.43 152.901C145.904 152.994 146.392 152.994 146.866 152.901L152.271 148.367L156.829 145.391L160.418 144.676C160.418 144.676 162.572 145.241 160.418 147.222L158.136 148.503L156.147 150.491L160.698 148.26C160.908 148.159 161.137 148.107 161.37 148.107C161.602 148.107 161.831 148.159 162.041 148.26C163.272 148.79 164.446 149.444 165.544 150.212C165.642 150.304 165.72 150.415 165.774 150.538C165.827 150.661 165.855 150.793 165.855 150.927C165.855 151.061 165.827 151.194 165.774 151.317C165.72 151.44 165.642 151.551 165.544 151.643L167.532 153.345C167.532 153.345 167.963 155.619 165.68 155.047L163.835 154.625L161.366 157.014C161.366 157.014 169.628 155.312 170.195 155.583C170.762 155.855 171.48 157.143 170.195 158.273C168.91 159.403 163.929 159.124 162.794 160.261C161.66 161.398 154.123 168.25 152.271 168.672C150.419 169.094 135.23 172.792 135.23 172.792L135.187 159.238Z" fill="#FFBE9D"/>
<path d="M167.475 153.323C167.084 153.086 166.71 152.823 166.355 152.537C166.018 152.286 165.637 151.993 165.149 151.678C164.919 151.521 164.68 151.364 164.431 151.206C164.208 151.041 163.946 150.935 163.67 150.899C163.105 151.021 162.567 151.246 162.084 151.564C161.596 151.829 161.165 152.079 160.799 152.279C160.423 152.543 160.018 152.763 159.593 152.937C159.894 152.591 160.251 152.296 160.648 152.065C161 151.821 161.423 151.542 161.912 151.256C162.156 151.113 162.414 150.97 162.687 150.827C162.983 150.656 163.314 150.554 163.656 150.527C163.755 150.507 163.858 150.507 163.957 150.527C164.041 150.555 164.122 150.588 164.201 150.627C164.347 150.697 164.489 150.776 164.625 150.863C164.891 151.028 165.135 151.192 165.343 151.364C165.795 151.693 166.19 152.015 166.513 152.293C167.166 152.88 167.518 153.288 167.475 153.323Z" fill="#EB996E"/>
<path d="M147.483 152.351C147.541 152.436 146.866 153.023 146.048 153.781C145.229 154.539 144.612 155.169 144.533 155.09C144.836 154.481 145.264 153.942 145.789 153.509C146.25 152.99 146.832 152.592 147.483 152.351Z" fill="#EB996E"/>
<path d="M87.0142 116.232C87.5995 116.95 88.1275 117.713 88.5934 118.513C89.5338 120.065 90.8617 122.383 92.4553 125.379C95.664 131.373 100.079 140.063 105.254 150.641L105.154 150.555L135.259 157.608H135.403V173.021H133.414H99.5833H95.7357C95.5684 173.031 95.4006 173.031 95.2333 173.021C95.064 172.988 94.8998 172.932 94.7451 172.856C94.4444 172.699 94.1585 172.514 93.8909 172.306C93.3907 171.934 92.9114 171.535 92.4553 171.111C90.7118 169.476 89.0561 167.749 87.4952 165.94C84.4372 162.478 81.7526 159.138 79.2761 156.077C74.3806 149.94 70.5546 144.869 67.9274 141.365L64.9197 137.302C64.5895 136.837 64.3383 136.487 64.1516 136.237C63.965 135.986 63.9004 135.865 63.9004 135.865C63.9004 135.865 64.0009 135.979 64.1875 136.215L64.9843 137.259L68.0494 141.265C70.7125 144.748 74.5744 149.79 79.4915 155.905C81.9536 158.952 84.6741 162.278 87.732 165.733C89.2932 167.526 90.9464 169.238 92.685 170.861C93.1405 171.277 93.6199 171.666 94.1206 172.027C94.3656 172.203 94.6249 172.358 94.8959 172.491C95.1613 172.619 95.4569 172.671 95.7501 172.642H99.5976H133.429H135.23L135.044 172.828C135.044 167.678 135.044 162.643 135.044 157.808L135.18 157.987L105.082 150.849H105.01L104.974 150.784C99.8345 140.192 95.4558 131.473 92.2974 125.472C90.7253 122.461 89.4261 120.137 88.5073 118.57C88.0407 117.798 87.689 117.197 87.409 116.825C87.1291 116.453 87.0142 116.232 87.0142 116.232Z" fill="#263238"/>
<path d="M83.0517 113.814C83.0517 113.879 82.1186 113.507 80.5968 113.163C79.7027 112.966 78.7962 112.83 77.8834 112.756C76.7677 112.67 75.647 112.67 74.5312 112.756C73.4187 112.872 72.317 113.075 71.2364 113.364C70.3528 113.604 69.4869 113.905 68.6451 114.265C67.2094 114.887 66.3911 115.416 66.3552 115.359C66.5172 115.197 66.7007 115.057 66.9008 114.944C67.4238 114.601 67.9708 114.295 68.5374 114.029C69.3777 113.626 70.249 113.291 71.1431 113.027C72.239 112.715 73.3609 112.502 74.4953 112.391C75.6319 112.287 76.7756 112.287 77.9121 112.391C78.8398 112.485 79.7589 112.65 80.6614 112.884C81.2661 113.042 81.8587 113.243 82.4344 113.485C82.8436 113.657 83.0661 113.786 83.0517 113.814Z" fill="#263238"/>
<path d="M99.6333 157.543C100.078 156.26 100.768 155.075 101.665 154.053C102.463 152.951 103.47 152.015 104.629 151.299C104.701 151.385 103.323 152.558 101.952 154.282C100.581 156.006 99.741 157.593 99.6333 157.543Z" fill="#263238"/>
<path d="M98.7219 152.937C100.247 151.591 102.234 150.882 104.271 150.956C104.271 151.07 102.957 151.206 101.399 151.764C99.8417 152.322 98.7865 153.03 98.7219 152.937Z" fill="#263238"/>
<path d="M124.298 230.067C123.724 228.873 122.331 228.351 121.06 227.922C95.9869 219.868 69.083 216.006 43.1625 220.698C40.0471 221.263 36.8313 221.999 34.3548 223.973C31.8783 225.948 30.3924 229.524 31.7132 232.385L37.0323 234.087C63.5737 231.143 90.371 231.33 116.868 234.645C118.656 234.874 120.536 235.095 122.187 234.394C123.838 233.693 125.08 231.669 124.298 230.067Z" fill="#455A64"/>
<path d="M95.2047 221.807C95.1478 221.817 95.0893 221.817 95.0324 221.807L94.5515 221.742L92.6923 221.47C91.0844 221.213 88.7515 220.841 85.8515 220.512C78.3107 219.624 70.7167 219.263 63.1253 219.432C60.9072 219.475 58.7394 219.582 56.6649 219.754C54.5904 219.925 52.5661 220.026 50.6352 220.197C50.3963 220.217 50.1562 220.217 49.9174 220.197C49.6929 220.176 49.467 220.176 49.2426 220.197C48.7882 220.228 48.3369 220.295 47.8931 220.398L45.2946 220.941C43.6221 221.313 42.0859 221.721 40.7005 222.178C38.5121 222.858 36.4223 223.82 34.4842 225.039C33.7664 225.476 33.2926 225.855 32.9553 226.119L32.5676 226.413C32.4815 226.477 32.4313 226.513 32.4241 226.506L32.5389 226.384L32.905 226.062C33.3825 225.652 33.8834 225.27 34.4053 224.918C36.3282 223.633 38.4201 222.62 40.6216 221.907C42.1326 221.401 43.6683 220.971 45.2228 220.619L47.8285 220.061C48.2992 219.944 48.7798 219.869 49.2641 219.84C49.503 219.819 49.7431 219.819 49.982 219.84C50.2205 219.867 50.4613 219.867 50.6998 219.84C52.602 219.661 54.6406 219.539 56.7295 219.375C58.8183 219.21 61.0364 219.089 63.1899 219.046C70.7747 218.874 78.3617 219.268 85.8874 220.226C88.7586 220.591 91.1131 221.005 92.7138 221.306L94.5658 221.649L95.0396 221.749L95.2047 221.807Z" fill="#263238"/>
<path d="M32.3665 181.096L75.1056 182.583C75.2545 182.589 75.4005 182.626 75.5343 182.691C75.668 182.756 75.7865 182.849 75.8819 182.963C75.9774 183.077 76.0477 183.21 76.0883 183.353C76.1289 183.495 76.1389 183.645 76.1177 183.792L69.966 234.859H79.5991L84.5664 178.643C84.6225 178.189 84.5832 177.729 84.4512 177.291C84.3192 176.853 84.0974 176.448 83.7997 176.1C83.502 175.752 83.1351 175.47 82.7221 175.271C82.3092 175.072 81.8592 174.961 81.4009 174.945L31.218 173.157L32.3665 181.096Z" fill="#455A64"/>
<path d="M259.507 177.376H252.809V178.857L267.553 319.278H274.43L259.507 177.376Z" fill="#455A64"/>
<path d="M109.985 177.376H116.682V178.886L102.936 319.235H96.0588L109.985 177.376Z" fill="#455A64"/>
<path d="M109.985 177.377C109.985 177.377 109.985 177.627 109.927 178.092C109.87 178.557 109.812 179.3 109.726 180.237C109.547 182.118 109.288 184.894 108.951 188.455C108.233 195.608 107.264 205.928 106.037 218.731C103.538 244.308 100.086 279.747 96.2383 319.228L96.0588 319.02H102.936L102.749 319.192C109.267 253.262 114.787 197.41 116.624 178.857C116.624 178.142 116.624 177.741 116.624 177.348L116.675 177.398H111.65H110.415H110.006H110.401H111.621L116.703 177.362H116.754V177.419C116.754 177.813 116.754 178.228 116.754 178.929C114.952 197.482 109.532 253.312 103.115 319.285V319.456H95.865V319.249C99.7699 279.726 103.28 244.243 105.814 218.638C107.099 205.857 108.125 195.543 108.843 188.412C109.202 184.836 109.482 182.118 109.669 180.237C109.769 179.315 109.841 178.607 109.891 178.092C109.941 177.577 109.985 177.377 109.985 177.377Z" fill="#263238"/>
<path d="M285.542 172.806H93.8694V178.85H285.542V172.806Z" fill="#455A64"/>
<path d="M265.134 178.857C265.134 178.957 226.932 179.043 179.821 179.043C132.711 179.043 94.4939 178.957 94.4939 178.857C94.4939 178.757 132.689 178.671 179.821 178.671C226.953 178.671 265.134 178.743 265.134 178.857Z" fill="#263238"/>
</svg>
